<?xml version="1.0" encoding="utf-8"?>
<!-- Generator: Adobe Illustrator 27.5.0, SVG Export Plug-In . SVG Version: 6.00 Build 0)  -->
<svg version="1.1" xmlns="http://www.w3.org/2000/svg" xmlns:xlink="http://www.w3.org/1999/xlink" x="0px" y="0px"
	 viewBox="0 0 500 500" style="enable-background:new 0 0 500 500;" xml:space="preserve">
<g id="BACKGROUND">
	<rect style="fill:#FFF5F0;" width="500" height="500"/>
</g>
<g id="OBJECTS">
	<g>
		<g>
			<polygon style="fill:#FAE8DC;" points="194.06,193.9 194.06,306.21 0,306.21 0,176.87 26.01,176.87 26.01,121.53 45.12,121.53 
				45.12,100.21 144.67,100.21 144.67,121.53 157.46,121.53 157.46,193.9 			"/>
			<polygon style="fill:#FAE8DC;" points="377.727,306.206 377.727,183.005 346.051,183.005 346.051,149.206 334.359,149.206 
				334.359,132.206 291.208,132.206 291.208,59.206 281.621,59.206 281.621,132.206 242.472,132.206 242.472,149.206 
				227.843,149.206 227.843,306.206 			"/>
			<polygon style="fill:#FAE8DC;" points="500,306.206 500,132.206 428.278,132.206 428.278,178.206 409.059,178.206 
				409.059,306.206 			"/>
		</g>
		<path style="fill:#8AC47B;" d="M500,329.533v-69.537c-129.852,6.563-291.587,54.422-339.921,69.537H500z"/>
		<path style="fill:#6FAB5C;" d="M500,237.17v57.529h-97.45c8.25-9.81,21.81-15.39,34.19-12.09c1.1-5.64,5.63-10.46,11.19-11.899
			c5.56-1.44,11.87,0.569,15.57,4.96c-0.16-4.95-0.25-9.99,1.09-14.75c1.35-4.761,4.36-9.29,8.88-11.31
			c4.52-2.01,10.58-0.82,13.15,3.419C489.04,246.4,493.88,240.69,500,237.17z"/>
		<path style="fill:#AEE2A1;" d="M292.82,328.569H0V261.92C62.31,264.859,223.26,277.289,292.82,328.569z"/>
		<rect y="406.199" style="fill:#AEE2A1;" width="500" height="93.801"/>
		<g>
			<rect y="320.523" style="fill:#DDDDDD;" width="500" height="115.695"/>
			<g>
				<rect y="412.885" style="fill:#FFF5F0;" width="500" height="13.334"/>
				<rect y="426.219" style="fill:#EDEDED;" width="500" height="10"/>
			</g>
		</g>
		<path style="fill:#8AC47B;" d="M145.8,500H0V389.89c9.75,0.54,19.35,3.72,27.29,9.4c14.79,10.57,23.27,29.36,21.42,47.44
			c12.11-3.729,26.52,1.45,30.99,13.31c4.07-3.59,10.31-4.51,15.25-2.239c4.94,2.27,8.31,7.6,8.23,13.04
			c1.95-5.431,0.74-11.88-3.05-16.23c-3.79-4.359-10-6.45-15.65-5.27c8.3-4.601,19.56-3.021,26.28,3.68
			c6.72,6.71,8.32,17.97,3.74,26.28c6.42-4.91,16.18-4.101,22.501,0.96C142.82,484.93,145.79,492.529,145.8,500z"/>
		<path style="fill:#6FAB5C;" d="M110.17,500H0v-65.711c1.48,0.131,2.97,0.33,4.44,0.631c7.4,1.47,14.54,5.5,18.49,11.93
			c3.94,6.439,4.06,15.4-0.78,21.189c4.66-1.289,8.56-5.069,10-9.689c2.04,5.35,1.44,11.64-1.58,16.51
			c8.73-2.28,17.95-4.09,26.72-1.96c8.77,2.12,16.94,9.19,17.58,18.19c7.9-3.41,17.28-3.2,25.01,0.58
			C103.88,493.619,107.41,496.51,110.17,500z"/>
		<path style="fill:#8AC47B;" d="M57.62,299.39H0v-57.78c4.4-0.42,9.07,1.03,12.04,4.35c5.7,6.38,4.61,17.199-1.48,23.199
			c3.22-1.73,7.67-0.649,9.73,2.37c2.05,3.03,1.43,7.57-1.37,9.92c3.32-2.54,7.39-4.29,11.57-4.189c4.18,0.109,8.42,2.319,10.3,6.06
			c1.75,3.51,0.94,8.26-2.1,10.63C44.87,289.84,54.61,292.529,57.62,299.39z"/>
		<g>
			<path style="fill:#8AC47B;" d="M500,389.02V500H326c3.567-6.78,9.043-12.37,15.548-15.62c9.417-4.69,20.786-4.38,29.975,0.83
				c-0.912-6.051,1.123-12.54,5.238-16.69c4.106-4.15,10.183-5.83,15.604-4.33c-5.694-4.59-13.696-5.47-20.102-2.2
				c8.641-8.62,22.182-10.76,32.694-5.17c1.925-9.76,8.513-18.26,16.981-21.92c8.468-3.67,18.578-2.39,26.06,3.29
				c4.188-17.44,15.138-32.8,29.555-41.46C484.479,392.569,492.152,389.97,500,389.02z"/>
			<path style="fill:#6FAB5C;" d="M500,410.659V500H377.773c6.26-7.28,16.005-11.181,24.911-8.65
				c-3.321-2.74-3.029-8.89,0.027-11.98c3.066-3.08,7.911-3.29,11.707-1.449c3.805,1.85,6.698,5.409,8.997,9.199
				c2.354-10.13,13.194-16.81,22.319-13.739c-5.128-3.49-11.516-4.7-17.419-3.29c9.271-6.38,21.836-6.48,31.198-0.25
				c-0.529-9.851,7.574-19.21,16.571-19.17c-6.223-7.74-5.247-20.45,0.711-28.431C482.343,414.81,491.213,411.149,500,410.659z"/>
		</g>
	</g>
	<ellipse style="fill:#C6C6C6;" cx="130.797" cy="348.779" rx="55.638" ry="6.199"/>
	<ellipse style="fill:#C6C6C6;" cx="180.671" cy="376.118" rx="55.638" ry="6.199"/>
	<ellipse style="fill:#C6C6C6;" cx="251.594" cy="352.007" rx="55.638" ry="6.199"/>
	<ellipse style="fill:#C6C6C6;" cx="430.392" cy="343.638" rx="55.638" ry="6.199"/>
	<path style="fill:#C6C6C6;" d="M433.959,366.54c0,3.323-30.571,6.018-68.282,6.018c-37.711,0-68.282-2.694-68.282-6.018
		s30.57-6.017,68.282-6.017C403.388,360.523,433.959,363.217,433.959,366.54z"/>
	<path style="fill:#C6C6C6;" d="M400.469,401.395c0,3.799-43.908,6.879-98.071,6.879c-54.163,0-98.072-3.08-98.072-6.879
		c0-3.799,43.908-6.878,98.072-6.878C356.561,394.517,400.469,397.596,400.469,401.395z"/>
	<ellipse style="fill:#C6C6C6;" cx="60.212" cy="365.675" rx="55.638" ry="6.199"/>
	<g>
		<g>
			<g>
				<g>
					<path style="fill:#FC9382;" d="M459.053,302.107l-0.856,27.555l-0.225,6.941l-2.271,2.911l-4.57-4.561l-0.117-1.126
						c-0.027-0.217-0.054-0.46-0.081-0.722l-0.063-0.559c-0.027-0.298-0.063-0.613-0.099-0.946l-0.108-1.055
						c-0.045-0.379-0.081-0.775-0.126-1.172h-0.009c-0.559-5.273-1.379-12.619-1.704-14.539c-0.514-3.056,0.992-9.194,0.992-9.194
						l-11.313-15.044l-2.785-3.705l-2.641-12.412l15.351-3.191c0,0,2.154,6.22,4.543,13.143
						C455.465,291.624,458.206,299.574,459.053,302.107z"/>
					<path style="fill:#D83D3D;" d="M452.968,284.431c-3.579,3.921-9.419,6.409-14.467,6.166l-2.785-3.705l-2.641-12.412
						l15.351-3.191C448.425,271.288,450.58,277.508,452.968,284.431z"/>
					<g>
						<path style="fill:#FFFFF6;" d="M470.793,342.482c-0.229,1.428-7.236,2.779-8.935,2.741c-1.699-0.037-4.019-1.389-5.244-2.072
							c-1.227-0.677-6.67,0.64-7.88-0.62c-0.353-0.372-0.433-1.028-0.374-1.8c0.168-1.894,1.234-4.486,1.432-5.036
							c0.279-0.777,1.323-0.753,1.323-0.753s0.008,0.001,0.014,0.01c0.214,0.236,3.057,3.22,4.374,3.373
							c0.1,0.011,0.196-0.002,0.287-0.024c0.315,0.153,0.585,0.259,0.792,0.282c1.186,0.145,2.592-3.05,3.197-3.813
							c0.636,0.362,1.329,0.883,2.009,1.465c0.013,0.018,0.026,0.028,0.04,0.039c1.315,1.288,2.971,2.968,3.719,3.734
							c0.053,0.05,0.099,0.098,0.137,0.144c0.053,0.049,0.099,0.097,0.131,0.134c0.83,0.868,2.665,0.517,3.254,0.589
							c0.259,0.04,0.675,0.071,1.036,0.233C470.559,341.311,470.918,341.691,470.793,342.482z"/>
						<path style="fill:#14475A;" d="M470.104,341.108c-1.362,1.254-7.128,2.33-8.647,2.295c-1.699-0.037-4.019-1.389-5.244-2.072
							c-1.219-0.676-6.588,0.624-7.853-0.6c0.168-1.894,1.234-4.486,1.432-5.036c0.279-0.777,1.323-0.753,1.323-0.753
							s0.008,0.001,0.014,0.01c0.214,0.236,3.057,3.22,4.374,3.373c0.1,0.011,0.196-0.002,0.287-0.024
							c1.209-0.398,2.075-4.008,2.454-4.023c0.44-0.011,0.969,0.175,1.535,0.492c0.636,0.362,1.329,0.883,2.009,1.465
							c0.013,0.018,0.026,0.028,0.04,0.039c1.542,1.33,3.033,2.972,3.719,3.734c0.053,0.05,0.099,0.098,0.137,0.144
							c0.053,0.049,0.099,0.097,0.131,0.134c0.83,0.868,2.665,0.517,3.254,0.589C469.327,340.915,469.744,340.946,470.104,341.108z"
							/>
						<path style="fill:#FFFFF6;" d="M462.482,335.613c-0.401-0.07-0.573,0.057-0.849,0.322c-0.222,0.213-0.45,0.421-0.663,0.643
							c-0.337,0.353-0.935,0.815-0.799,1.363c0.052,0.211,0.267,0.265,0.445,0.192c0.436-0.176,0.856-0.563,1.217-0.858
							c0.362-0.297,1.024-0.679,0.984-1.201C462.804,335.887,462.695,335.65,462.482,335.613z"/>
						<path style="fill:#FFFFF6;" d="M464.674,336.967c-0.569-0.09-1.03,0.243-1.505,0.534c-0.465,0.284-0.991,0.592-1.35,1.007
							c-0.283,0.327-0.048,0.922,0.436,0.786c0.507-0.142,0.972-0.433,1.436-0.678c0.42-0.222,1.063-0.442,1.274-0.888
							C465.087,337.469,465.035,337.023,464.674,336.967z"/>
					</g>
				</g>
				<g>
					<path style="fill:#FFB4A0;" d="M448.857,270.69c0,0-4.296,12.749-5.48,16.877c-0.242,0.858-0.988,2.685-2.032,5.052
						c-0.279,0.634-0.578,1.314-0.904,2.022c-4.194,9.301-11.36,23.97-12.376,25.125c-1.379,1.575-26.496,14.287-26.496,14.287
						s-5.004,1.622-6.263-0.41c-0.857-1.389,2.666-5.964,2.666-5.964s13.597-10.773,16.011-12.525
						c1.855-1.343,7.046-4.902,7.046-4.902c1.137-8.183,3.308-20.587,3.858-23.719c0.083-0.475,0.13-0.736,0.13-0.736
						s-0.13-7.717,0.578-10.372c1.286-4.781,4.93-8.006,4.93-8.006L448.857,270.69z"/>
					<path style="fill:#FF5F5C;" d="M448.857,270.69c0,0-4.296,12.749-5.48,16.877c-0.242,0.858-0.988,2.685-2.032,5.052
						c-0.279,0.634-0.578,1.314-0.904,2.022c-5.676-1.305-10.867-4.399-15.554-8.108c0.083-0.475,0.13-0.736,0.13-0.736
						s-0.13-7.717,0.578-10.372c1.286-4.781,4.93-8.006,4.93-8.006L448.857,270.69z"/>
					<g>
						<path style="fill:#FFFFF6;" d="M399.154,349.174c-1.427,0.382-5.61-5.586-6.284-7.185c-0.673-1.599-0.382-4.326-0.255-5.753
							c0.119-1.426-3.38-5.95-2.71-7.605c0.199-0.483,0.778-0.832,1.522-1.1c1.835-0.633,4.697-0.721,5.292-0.767
							c0.841-0.064,1.254,0.919,1.254,0.919s0.002,0.008-0.004,0.018c-0.131,0.298-1.726,4.193-1.319,5.484
							c0.032,0.098,0.084,0.182,0.143,0.257c-0.011,0.358,0.003,0.653,0.067,0.857c0.36,1.165,3.925,1.143,4.888,1.389
							c-0.072,0.744-0.27,1.607-0.528,2.485c-0.011,0.018-0.015,0.036-0.02,0.053c-0.651,1.764-1.527,4.009-1.93,5.025
							c-0.023,0.07-0.049,0.133-0.076,0.188c-0.023,0.07-0.049,0.133-0.07,0.179c-0.463,1.137,0.631,2.7,0.81,3.279
							c0.07,0.258,0.214,0.659,0.214,1.063C400.148,348.467,399.943,348.96,399.154,349.174z"/>
						<path style="fill:#14475A;" d="M400.147,347.958c-1.737-0.746-5.146-5.672-5.748-7.103c-0.674-1.6-0.382-4.326-0.256-5.754
							c0.121-1.418-3.331-5.882-2.718-7.571c1.835-0.633,4.697-0.721,5.292-0.767c0.841-0.064,1.254,0.919,1.254,0.919
							s0.002,0.008-0.004,0.018c-0.131,0.298-1.726,4.193-1.319,5.484c0.032,0.098,0.084,0.182,0.143,0.257
							c0.876,0.961,4.602,0.263,4.773,0.609c0.194,0.405,0.242,0.976,0.182,1.636c-0.072,0.744-0.27,1.607-0.528,2.485
							c-0.011,0.018-0.015,0.036-0.02,0.053c-0.597,1.992-1.505,4.067-1.93,5.025c-0.023,0.07-0.049,0.133-0.076,0.188
							c-0.023,0.07-0.049,0.133-0.07,0.179c-0.463,1.137,0.631,2.7,0.81,3.279C400.003,347.153,400.147,347.555,400.147,347.958z"/>
						<path style="fill:#FFFFF6;" d="M402.09,338.56c-0.103-0.403-0.292-0.511-0.654-0.657c-0.291-0.117-0.58-0.243-0.876-0.349
							c-0.469-0.168-1.15-0.532-1.604-0.176c-0.174,0.136-0.136,0.358,0.006,0.495c0.346,0.333,0.882,0.564,1.309,0.776
							c0.428,0.214,1.06,0.671,1.53,0.416C401.969,338.974,402.145,338.774,402.09,338.56z"/>
						<path style="fill:#FFFFF6;" d="M401.743,341.168c-0.154-0.567-0.657-0.858-1.126-1.181c-0.459-0.314-0.965-0.678-1.502-0.838
							c-0.423-0.127-0.88,0.34-0.552,0.734c0.345,0.413,0.809,0.726,1.231,1.056c0.382,0.298,0.856,0.806,1.36,0.817
							C401.447,341.763,401.84,341.528,401.743,341.168z"/>
					</g>
				</g>
				<g>
					<g>
						<g>
							<path style="fill:#FC9382;" d="M441.969,249.29l2.01,7.044c7.104-1.511,15.17-3.697,15.17-3.697l-0.594-5.772L441.969,249.29
								z"/>
						</g>
						<path style="fill:#FC9382;" d="M458.555,246.863c0,0,1.611-5.9,2.96-6.107c1.349-0.207,0.563,3.244,0.563,3.244
							s4.186-1.407,4.749-1.022c0.563,0.385,0.954,2.615,0.718,3.724c0,0,0.618,2.65,0.203,3.543
							c-0.415,0.892-2.449,2.033-3.283,2.421c-0.834,0.388-5.316-0.028-5.316-0.028L458.555,246.863z"/>
					</g>
				</g>
				<g>
					<polygon style="fill:#FFB4A0;" points="446.72,218.689 445.368,225.912 438.34,224.596 440.473,214.885 442.767,215.331 
						444.743,213.066 					"/>
					<path style="fill:#FC9382;" d="M446.72,218.689l-0.443,2.366c-0.815-0.565-1.518-1.303-2.066-2.133
						c-0.552-0.847-1.172-2.24-1.444-3.592l1.976-2.265L446.72,218.689z"/>
					<g>
						<path style="fill:#FFB4A0;" d="M455.64,213.164c-0.116-0.339-0.299-0.657-0.481-0.973c-0.376-0.651-0.753-1.302-1.128-1.954
							c-0.071-0.123-0.14-0.249-0.215-0.371c-0.564-3.445-1.511-6.632-2.206-7.324c-1.444-1.438-5.558-0.182-5.558-0.182
							s-2.934,3.227-3.34,7.835c-0.379-0.444-0.875-0.757-1.444-0.474c-1.313,0.652-1.974,2.618-0.924,3.944
							c0.634,0.801,1.935,1.042,2.869,1.109c0.199,0.631,0.36,1.328,0.78,1.925c4.369,6.205,9.064,3.039,9.514,2.407
							c0.647-0.911,0.848-2.719,0.774-4.82c0.322-0.082,0.636-0.186,0.925-0.336c0.216-0.112,0.438-0.265,0.478-0.479
							C455.703,213.369,455.674,213.264,455.64,213.164z"/>
						<path style="fill:#004D60;" d="M454.488,201.368c-0.198-0.637-0.869-1.052-1.54-1.161c-0.672-0.108-1.354,0.032-2.017,0.171
							c0.496-0.288,0.316-1.109-0.184-1.404c-0.5-0.295-1.129-0.222-1.7-0.124c-0.345,0.06-1.171,0.205-2.009,0.444
							c-1.909-0.496-3.991-0.454-5.817,0.148c-3.068,1.013-5.374,3.62-5.609,6.787c-0.096,1.303-0.161,2.406,0.169,3.7
							c0.33,1.293,0.847,2.538,1.434,3.737c0.698,1.426,1.496,2.831,2.418,4.131c0,0,3.34-2.38,3.713-3.023
							c0,0-4.418-0.84-2.845-4.34c0,0,1.421-1.525,2.999,0.354c0,0,1.239-2.012,2.196-3.981c1.399-0.399,2.726-1.332,3.309-2.323
							c-0.021,0.034,0.06,0.106,0.171,0.185c0.379,0.559,0.797,1.142,1.452,1.202c0.52,0.047,0.989-0.273,1.384-0.6
							c0.66-0.548,1.262-1.162,1.792-1.831C454.278,202.846,454.714,202.097,454.488,201.368z"/>
						<path style="fill:#FC9382;" d="M442.691,210.994c-0.777-0.54-2.115,0.118-1.974,1.101c0.009,0.06,0.09,0.063,0.105,0.005
							c0.219-0.881,1.36-1.237,1.9-0.449c0.101,0.146,0.165,0.292,0.206,0.438c-0.245-0.116-0.635-0.121-0.804-0.071
							c-0.452,0.133-0.782,0.675-0.54,1.111c0.099,0.178,0.327,0.034,0.331-0.122c0.008-0.278,0.059-0.511,0.343-0.629
							c0.108-0.045,0.683-0.104,0.686,0.047c0,0.027,0.011,0.047,0.027,0.062c-0.018,0.346-0.175,0.682-0.427,0.997
							c-0.11,0.139,0.069,0.353,0.217,0.235C443.607,213.047,443.581,211.612,442.691,210.994z"/>
					</g>
				</g>
				<path style="fill:#00B6A5;" d="M454.873,241.063c-0.752,3.261-3.776,10.831-3.776,10.831s-2.587,7.658-1.644,20.062
					c0,0-16.574,3.619-23.017-1.058c0,0,7.186-20.01,7.02-22.44c-0.061-0.874-0.516-2.762-1.058-4.982
					c-0.962-3.995-2.221-9.048-1.975-11.172c0.358-3.059,2.211-8.295,5.874-10.524c0,0,0.009,0,0.009-0.009
					c0.551-0.332,1.207-0.437,1.845-0.341c0.245,0.035,0.533,0.079,0.856,0.131h0.009c1.11,0.175,2.587,0.437,3.995,0.752
					c0.14,0.026,0.262,0.061,0.384,0.087c0.918,0.219,1.801,0.455,2.501,0.717l6.249,9.721c0.318,0.494,0.608,1.008,0.845,1.547
					c0.001,0.003,0.003,0.006,0.004,0.009c0.026,0.052,0.043,0.096,0.061,0.148C454.305,237.295,455.162,239.83,454.873,241.063z"/>
				<g>
					<path style="fill:#FFB4A0;" d="M443.797,257.074c0,0-24.883-0.588-26.673-7.328c-0.874-3.294,10.15-20.645,12.082-22.79
						c1.932-2.145,5.324-5.524,8.087-4.205c5.005,2.389,3.587,5.993,1.655,9.518c-1.932,3.525-11.508,14.259-11.508,14.259
						l17.238,4.81L443.797,257.074z"/>
					<path style="fill:#FFB4A0;" d="M444.678,251.338c0,0,3.048-5.303,4.405-5.163c1.357,0.14-0.273,3.28-0.273,3.28
						s4.406-0.305,4.854,0.209c0.447,0.515,0.263,2.771-0.245,3.784c0,0-0.07,2.721-0.697,3.48c-0.627,0.759-2.883,1.35-3.788,1.515
						c-0.905,0.165-5.138-1.368-5.138-1.368L444.678,251.338z"/>
				</g>
			</g>
			<path style="fill:#FFB4A0;" d="M440.458,238.248c-2.273,2.281-5.158,3.82-8.06,5.228c-0.962-3.995-2.221-9.048-1.975-11.172
				c0.358-3.059,2.211-8.295,5.874-10.524c1.337,0.192,2.631,0.664,3.768,1.398c1.88,1.198,3.305,3.13,3.803,5.298
				C444.663,231.989,442.993,235.695,440.458,238.248z"/>
			<path style="fill:#FC9382;" d="M440.217,228.07c-0.022-0.188-0.32-0.272-0.362-0.049c-0.467,2.469-1.139,4.516-2.755,6.504
				c-1.4,1.722-3.117,3.099-4.842,4.479c-0.517,0.413,0.166,1.304,0.712,0.922C436.846,237.214,440.809,233.217,440.217,228.07z"/>
			<path style="fill:#FFB4A0;" d="M453.055,234.542c-0.49,0.69-1.268,1.39-2.5,1.835c-3.226,1.163-6.014-9.256-7.177-11.224
				c-1.162-1.967-4.371-3.593-4.371-3.593h0.009c1.11,0.175,2.587,0.437,3.995,0.752c0.14,0.026,0.262,0.061,0.384,0.087
				c0.918,0.219,1.801,0.455,2.501,0.717l6.24,9.706c0.337,0.523,0.644,1.069,0.889,1.643l0.031,0.072
				C453.055,234.539,453.055,234.54,453.055,234.542z"/>
		</g>
		<path style="fill:#004D60;" d="M431.06,197.998c-1.191,0.56-2.206,1.564-2.606,2.818c-0.654,2.05,0.583,4.452,2.56,5.3
			c2.65,1.136,6.854-0.617,7.211-3.731C438.644,198.729,433.962,196.636,431.06,197.998z"/>
		<path style="fill:#FFFFF6;" d="M437.728,200.743c-1.04,1.479-2.341,3.278-2.37,5.156c-0.006,0.364,0.427,0.494,0.676,0.28
			c1.374-1.181,2.189-3.072,3.239-4.533C439.944,200.711,438.388,199.804,437.728,200.743z"/>
	</g>
	<g>
		<g>
			<polygon style="fill:#FFB4A0;" points="384.537,216.87 380.935,224.427 373.582,220.922 377.18,210.901 381.165,212.015 
				384.004,210.099 			"/>
			<path style="fill:#FC9382;" d="M384.537,216.87l-1.18,2.476c-0.732-0.861-1.291-1.878-1.65-2.953
				c-0.361-1.094-0.636-2.81-0.541-4.378l2.838-1.916L384.537,216.87z"/>
			<g>
				<path style="fill:#FFB4A0;" d="M396.177,212.244c-0.059-0.404-0.197-0.798-0.335-1.19c-0.285-0.808-0.57-1.616-0.855-2.423
					c-0.054-0.153-0.105-0.308-0.164-0.46c0.087-3.976-0.308-7.743-0.941-8.664c-1.316-1.912-6.187-1.364-6.187-1.364
					s-3.96,3.001-5.377,8.078c-0.332-0.577-0.822-1.03-1.518-0.832c-1.607,0.456-2.757,2.52-1.858,4.224
					c0.543,1.029,1.95,1.572,2.982,1.842c0.091,0.748,0.126,1.563,0.472,2.318c3.597,7.861,9.517,5.297,10.153,4.683
					c0.915-0.884,1.518-2.867,1.873-5.236c0.378-0.025,0.751-0.076,1.107-0.183c0.266-0.08,0.546-0.205,0.634-0.436
					C396.204,212.487,396.194,212.363,396.177,212.244z"/>
				<path style="fill:#FC9382;" d="M382.128,207.109c-0.757-0.767-2.393-0.309-2.441,0.821c-0.003,0.069,0.088,0.089,0.116,0.027
					c0.429-0.941,1.782-1.102,2.222-0.106c0.082,0.186,0.124,0.363,0.14,0.534c-0.25-0.182-0.686-0.268-0.885-0.247
					c-0.533,0.055-1.017,0.592-0.837,1.13c0.073,0.221,0.359,0.107,0.397-0.067c0.067-0.31,0.172-0.56,0.516-0.633
					c0.131-0.028,0.786,0.026,0.758,0.196c-0.005,0.03,0.002,0.055,0.017,0.074c-0.092,0.384-0.338,0.728-0.686,1.028
					c-0.153,0.132,0.004,0.41,0.194,0.309C382.726,209.6,382.995,207.988,382.128,207.109z"/>
			</g>
		</g>
		<g>
			<path style="fill:#FC9382;" d="M403.478,241.315l4.644,5.421c0,0-14.697,18.003-21.296,19.507
				c-3.516,0.796-7.702,0.158-17.277-10.778c3.681-2.167,9.67-5.623,13.227-7.313c0.592,2.336,0.944,3.941,0.944,3.941
				L403.478,241.315z"/>
			<path style="fill:#FC9382;" d="M403.478,241.315c0,0,0.097-5.35,1.116-6.211c1.018-0.861,2.125,2.416,2.125,2.416
				s2.771-3.31,3.437-3.276c0.665,0.034,2.13,1.693,2.499,2.737c0,0,1.868,1.893,1.978,2.849c0.109,0.956-1.003,2.945-1.5,3.694
				c-0.496,0.749-5.011,3.212-5.011,3.212L403.478,241.315z"/>
		</g>
		<g>
			<path style="fill:#FC9382;" d="M376.493,286.069c0,0-4.152,8.297-9.162,17.127c-5.564,9.817-12.195,20.283-15.352,20.692
				c-5.989,0.771-46.087-15.844-46.087-15.844l-8.742-3.692l8.972-5.545c0,0,27.526,2.386,30.204,3.357
				c3.527,1.281,9.787,6.275,9.787,6.275c0.27-1.898,2.03-9.026,3.89-14.653c3.411-10.373,7.965-23.031,7.965-23.031
				L376.493,286.069z"/>
			<path style="fill:#003948;" d="M376.493,286.069c0,0-4.152,8.297-9.162,17.127c-5.055-1.598-12.681-6.329-17.327-9.409
				c3.411-10.373,7.965-23.031,7.965-23.031L376.493,286.069z"/>
		</g>
		<path style="fill:#FFC13E;" d="M388.33,247.643c-0.195,0.93-1.352,3.589-2.854,6.854c-3.47,7.523-8.854,18.226-8.854,18.226
			l-24.442-4.248c2.314-4.887,6.562-12.605,6.562-12.605s-2.065-20.961-2.313-24.691c-0.26-3.74,7.46-15.567,8.875-16.345
			c1.416-0.768,7.07,0,7.07,0c6.432,2.702,12.864,7.34,14.151,10.162c0.432,0.951,0.854,3.46,1.189,6.497
			C388.384,237.514,388.752,245.589,388.33,247.643z"/>
		<path style="fill:#FFFFF6;" d="M388.33,247.643c-0.195,0.93-1.352,3.589-2.854,6.854c-3.622-0.357-7.2-1.352-10.464-2.897
			c1.07-2.811,2.151-5.6,3.232-8.41c-0.714-3.935-1.622-7.827-2.735-11.654c3.924-0.875,8.172-0.897,12.205-0.043
			C388.384,237.514,388.752,245.589,388.33,247.643z"/>
		<path style="fill:#FFB4A0;" d="M415.454,352.703l-0.603,9.467l-8.034-6.138c0,0-13.282-24.653-13.861-30.249
			c-0.579-5.596-0.116-13.406-0.116-13.406s-10.481-5.403-20.893-11.493c-8.621-5.047-17.212-10.565-19.767-13.885
			c-5.657-7.332,0-18.523,0-18.523l24.444,4.245c0,0,6.267,6.931,12.805,14.286c6.823,7.664,13.931,15.792,14.525,16.973
			C405.112,306.295,415.454,352.703,415.454,352.703z"/>
		<path style="fill:#004D60;" d="M389.429,287.007c-1.876,2.786-4.276,5.256-6.908,7.363c-3.241,2.586-6.854,4.662-10.574,6.514
			c-8.621-5.047-17.212-10.565-19.767-13.885c-5.657-7.332,0-18.523,0-18.523l24.444,4.245
			C376.624,272.721,382.891,279.651,389.429,287.007z"/>
		<g>
			<path style="fill:#FFFFF6;" d="M293.426,322.895c-1.798-0.514-2.454-9.718-2.144-11.893c0.31-2.175,2.403-4.945,3.47-6.413
				c1.058-1.471,0.205-8.662,2.01-10.022c0.531-0.396,1.387-0.396,2.368-0.202c2.405,0.507,5.57,2.275,6.245,2.613
				c0.955,0.479,0.763,1.815,0.763,1.815s-0.003,0.009-0.016,0.016c-0.335,0.238-4.604,3.429-5.004,5.096
				c-0.029,0.127-0.027,0.252-0.013,0.372c-0.245,0.381-0.422,0.711-0.484,0.973c-0.368,1.5,3.516,3.798,4.402,4.692
				c-0.563,0.761-1.339,1.569-2.191,2.354c-0.025,0.013-0.04,0.028-0.056,0.045c-1.856,1.489-4.269,3.356-5.368,4.199
				c-0.071,0.061-0.14,0.112-0.205,0.154c-0.071,0.061-0.14,0.112-0.192,0.147c-1.243,0.933-1.074,3.343-1.256,4.088
				c-0.092,0.325-0.197,0.855-0.46,1.294C294.965,322.775,294.421,323.178,293.426,322.895z"/>
			<path style="fill:#00B6A5;" d="M295.295,322.223c-1.4-1.942-1.894-9.511-1.614-11.456c0.31-2.175,2.403-4.946,3.47-6.414
				c1.055-1.461,0.214-8.555,1.979-9.989c2.405,0.507,5.57,2.275,6.245,2.613c0.955,0.479,0.763,1.815,0.763,1.815
				s-0.003,0.009-0.016,0.016c-0.335,0.238-4.604,3.429-5.004,5.096c-0.029,0.127-0.027,0.252-0.013,0.372
				c0.326,1.614,4.826,3.281,4.787,3.77c-0.054,0.567-0.373,1.218-0.868,1.896c-0.563,0.761-1.339,1.569-2.191,2.354
				c-0.025,0.013-0.04,0.028-0.056,0.045c-1.945,1.774-4.283,3.436-5.368,4.199c-0.071,0.061-0.14,0.112-0.205,0.154
				c-0.071,0.061-0.14,0.112-0.192,0.147c-1.243,0.933-1.074,3.343-1.256,4.088C295.663,321.254,295.559,321.784,295.295,322.223z"
				/>
			<path style="fill:#FFFFF6;" d="M303.525,313.283c0.152-0.505,0.016-0.745-0.283-1.14c-0.239-0.317-0.471-0.644-0.724-0.95
				c-0.4-0.487-0.902-1.326-1.627-1.235c-0.278,0.034-0.381,0.301-0.316,0.542c0.159,0.586,0.591,1.185,0.915,1.695
				c0.325,0.511,0.713,1.419,1.389,1.448C303.124,313.653,303.445,313.552,303.525,313.283z"/>
			<path style="fill:#FFFFF6;" d="M301.45,315.889c0.203-0.717-0.154-1.36-0.454-2.016c-0.293-0.64-0.607-1.363-1.085-1.888
				c-0.377-0.413-1.177-0.203-1.077,0.438c0.104,0.674,0.405,1.315,0.649,1.948c0.22,0.573,0.405,1.433,0.944,1.773
				C300.741,316.342,301.321,316.344,301.45,315.889z"/>
		</g>
		<g>
			<path style="fill:#FFFFF6;" d="M433.955,358.505c0.216,1.858-8.029,6.001-10.156,6.551c-2.127,0.55-5.49-0.317-7.255-0.739
				c-1.764-0.411-8.075,3.14-10.024,1.996c-0.57-0.339-0.9-1.128-1.098-2.108c-0.456-2.415-0.039-6.017,0.013-6.771
				c0.074-1.064,1.382-1.401,1.382-1.401s0.01-0.001,0.021,0.008c0.349,0.219,4.935,2.934,6.628,2.662
				c0.128-0.021,0.243-0.072,0.348-0.131c0.446,0.079,0.819,0.116,1.085,0.072c1.526-0.236,2.155-4.705,2.64-5.867
				c0.918,0.228,1.963,0.633,3.015,1.118c0.021,0.018,0.043,0.026,0.063,0.034c2.089,1.141,4.74,2.65,5.94,3.342
				c0.084,0.043,0.158,0.086,0.221,0.13c0.084,0.043,0.158,0.086,0.211,0.121c1.338,0.789,3.498-0.293,4.256-0.411
				c0.336-0.04,0.866-0.147,1.371-0.072C433.252,357.131,433.832,357.478,433.955,358.505z"/>
			<path style="fill:#00B6A5;" d="M432.615,357.038c-1.255,2.039-8.053,5.403-9.956,5.893c-2.128,0.55-5.49-0.317-7.254-0.738
				c-1.754-0.412-7.98,3.091-9.984,2.012c-0.456-2.415-0.039-6.017,0.013-6.771c0.074-1.064,1.382-1.401,1.382-1.401
				s0.01-0.001,0.021,0.008c0.349,0.219,4.935,2.934,6.628,2.662c0.128-0.021,0.243-0.072,0.348-0.131
				c1.365-0.921,1.176-5.717,1.641-5.868c0.544-0.168,1.267-0.123,2.083,0.073c0.918,0.228,1.963,0.633,3.015,1.118
				c0.021,0.018,0.043,0.026,0.063,0.034c2.386,1.114,4.818,2.634,5.94,3.342c0.084,0.043,0.158,0.086,0.221,0.13
				c0.084,0.043,0.158,0.086,0.211,0.121c1.338,0.789,3.498-0.293,4.256-0.411C431.58,357.07,432.109,356.963,432.615,357.038z"/>
			<path style="fill:#FFFFF6;" d="M421.199,352.875c-0.524,0.055-0.693,0.272-0.943,0.699c-0.201,0.343-0.413,0.683-0.599,1.033
				c-0.296,0.558-0.877,1.343-0.515,1.978c0.139,0.243,0.424,0.235,0.622,0.083c0.48-0.372,0.868-1.002,1.213-1.497
				c0.347-0.496,1.036-1.203,0.803-1.839C421.696,353.104,421.478,352.847,421.199,352.875z"/>
			<path style="fill:#FFFFF6;" d="M424.402,353.79c-0.739,0.089-1.196,0.665-1.686,1.193c-0.479,0.517-1.026,1.085-1.327,1.728
				c-0.237,0.507,0.265,1.164,0.818,0.826c0.582-0.355,1.058-0.88,1.549-1.348c0.444-0.424,1.168-0.925,1.274-1.554
				C425.094,354.271,424.872,353.734,424.402,353.79z"/>
		</g>
		<path style="fill:#FFC13E;" d="M372.379,231.42c-1.189,2.292-12.457,2.948-18.663,3.134c-2.408,0.077-4.052,0.077-4.052,0.077
			l6.29,21.611l-6.29,3.373c0,0-14.433-18.215-14.487-24.984c-0.023-3.604,1.497-7.556,14.233-14.564
			c0.193-0.108,0.393-0.216,0.594-0.324c13.283-7.201,22.375-4.909,22.375-4.909S374.031,228.233,372.379,231.42z"/>
		<path style="fill:#EA9D25;" d="M372.313,219.088c-0.359-0.732-1.359-0.184-1.234,0.52c0.648,3.643,0.601,7.025-2.244,9.785
			c-2.207,2.141-5.394,2.669-8.18,3.71c-0.681,0.254-0.398,1.349,0.305,1.105c3.798-1.321,7.568-1.697,10.159-5.143
			C373.226,226.262,373.879,222.277,372.313,219.088z"/>
		<g>
			<path style="fill:#FFB4A0;" d="M355.955,256.242l-6.29,3.373c0,0-14.433-18.215-14.487-24.984
				c-0.023-3.604,1.497-7.556,14.233-14.564c1.327,4.06,3.419,10.651,4.307,14.487c-2.408,0.077-4.052,0.077-4.052,0.077
				L355.955,256.242z"/>
			<path style="fill:#FFB4A0;" d="M355.955,256.242c0,0,5.204,1.241,5.827,2.421c0.623,1.18-2.815,1.559-2.815,1.559
				s2.638,3.416,2.463,4.059s-2.11,1.718-3.209,1.854c0,0-2.25,1.419-3.207,1.321c-0.957-0.099-2.662-1.612-3.287-2.258
				c-0.625-0.646-2.063-5.583-2.063-5.583L355.955,256.242z"/>
		</g>
		<path style="fill:#004D60;" d="M387.356,198.794c0.069-0.021-2.817,5.702-4.881,8.162c-0.55-0.629-0.944-1.371-1.855-0.985
			c-1.582,0.669-2.116,3.052-0.777,4.179c0.225,0.189,2.02,1.023,1.986,1.334c-0.044,0.406,0.083,0.811,0.081,1.22
			c-0.001,0.409-0.202,0.877-0.603,0.956c-0.215,0.042-0.434-0.039-0.632-0.131c-0.69-0.322-1.306-0.801-1.788-1.39
			c0.147,0.436,0.227,1.044-0.19,1.239c-0.354,0.166-0.741-0.142-1.003-0.433c-1.433-1.596-2.553-3.465-3.331-5.463
			c-0.669-1.717-1.091-3.588-0.776-5.404c0.315-1.816,1.479-3.559,3.212-4.186c-0.233-1.183,0.209-2.374,1.031-3.256
			c0.823-0.882,1.925-1.453,3.046-1.897c4.333-1.718,9.12-1.769,13.781-1.797c0.333-0.002,0.678-0.002,0.979,0.139
			c0.302,0.141,0.545,0.464,0.482,0.791c-0.049,0.251-0.257,0.436-0.457,0.595c-0.636,0.508-1.311,0.967-2.018,1.371
			c2.016-0.382,4.142-0.166,6.04,0.613c0.326,0.134,0.686,0.333,0.749,0.679c0.08,0.433-0.343,0.778-0.721,1.003
			c-1.312,0.783-2.702,1.435-4.142,1.944c0.47,0.164,0.99,0.041,1.483,0.108c0.494,0.066,1.029,0.494,0.88,0.969
			c-0.104,0.335-0.484,0.487-0.821,0.584C393.851,200.673,390.511,200.043,387.356,198.794z"/>
	</g>
	<g>
		<g>
			<path style="fill:#003948;" d="M254.651,231.767c-1.011,1.949-10.595,2.507-15.872,2.665c-2.048,0.065-3.446,0.065-3.446,0.065
				l5.35,18.38l-5.35,2.868c0,0-12.275-15.491-12.321-21.248c-0.02-3.065,1.273-6.426,12.104-12.387
				c0.164-0.092,0.335-0.184,0.505-0.276c11.297-6.124,19.03-4.175,19.03-4.175S256.056,229.055,254.651,231.767z"/>
			<g>
				<path style="fill:#FC9382;" d="M240.683,252.877c0,0,4.426,1.056,4.956,2.06c0.53,1.003-2.395,1.325-2.395,1.325
					s2.244,2.905,2.095,3.452c-0.149,0.546-1.794,1.461-2.729,1.577c0,0-1.914,1.206-2.728,1.123
					c-0.814-0.083-2.264-1.371-2.795-1.92c-0.532-0.55-1.754-4.749-1.754-4.749L240.683,252.877z"/>
			</g>
		</g>
		<g>
			<polygon style="fill:#FFB4A0;" points="264.991,219.391 261.928,225.818 255.674,222.838 258.734,214.315 262.125,215.262 
				264.539,213.633 			"/>
			<path style="fill:#FC9382;" d="M264.991,219.391l-1.003,2.105c-0.623-0.732-1.097-1.598-1.404-2.511
				c-0.307-0.931-0.541-2.389-0.46-3.723l2.414-1.629L264.991,219.391z"/>
			<g>
				<path style="fill:#FFB4A0;" d="M274.892,215.458c-0.05-0.344-0.168-0.679-0.286-1.012c-0.242-0.687-0.485-1.374-0.728-2.061
					c-0.046-0.13-0.089-0.262-0.139-0.392c0.074-3.381-0.262-6.585-0.8-7.368c-1.12-1.626-5.262-1.161-5.262-1.161
					s-3.368,2.553-4.574,6.87c-0.282-0.491-0.699-0.876-1.291-0.708c-1.366,0.388-2.345,2.143-1.581,3.593
					c0.461,0.875,1.658,1.337,2.536,1.566c0.077,0.637,0.107,1.329,0.401,1.972c3.06,6.687,8.095,4.505,8.635,3.983
					c0.778-0.752,1.29-2.438,1.593-4.454c0.321-0.021,0.639-0.064,0.941-0.156c0.226-0.068,0.464-0.175,0.539-0.371
					C274.915,215.664,274.906,215.559,274.892,215.458z"/>
				<path style="fill:#FC9382;" d="M262.943,211.09c-0.644-0.652-2.035-0.263-2.076,0.698c-0.003,0.058,0.075,0.076,0.099,0.023
					c0.365-0.8,1.516-0.937,1.889-0.09c0.07,0.158,0.106,0.308,0.119,0.454c-0.213-0.154-0.583-0.227-0.753-0.21
					c-0.454,0.046-0.865,0.504-0.712,0.962c0.063,0.188,0.306,0.091,0.338-0.058c0.057-0.263,0.146-0.476,0.438-0.539
					c0.112-0.024,0.669,0.022,0.645,0.166c-0.004,0.026,0.002,0.047,0.014,0.064c-0.078,0.327-0.288,0.619-0.583,0.874
					c-0.13,0.113,0.003,0.349,0.165,0.263C263.451,213.209,263.681,211.837,262.943,211.09z"/>
			</g>
		</g>
		<path style="fill:#004D60;" d="M268.218,245.564c-0.166,0.791-1.149,3.053-2.427,5.829c-2.951,6.399-7.53,15.501-7.53,15.501
			l-20.788-3.613c1.968-4.155,5.581-10.72,5.581-10.72s-1.756-17.827-1.968-20.999c-0.221-3.182,6.344-13.24,7.548-13.902
			c1.205-0.652,6.013,0,6.013,0c5.47,2.299,10.941,6.243,12.035,8.643c0.368,0.809,0.726,2.942,1.011,5.526
			C268.264,236.949,268.577,243.816,268.218,245.564z"/>
		<g>
			<path style="fill:#FC9382;" d="M279.226,343.234l-2.069,7.797l-5.691-6.454c0,0-6.997-22.765-6.556-27.527
				c0.12-1.333,0.35-2.804,0.598-4.22c0.653-3.641,1.517-6.979,1.517-6.979s-3.687-2.933-8.477-6.969
				c-2.197-1.849-4.634-3.936-7.052-6.077c-6.353-5.637-12.605-11.658-14.186-14.849c-3.512-7.061,1.829-14.389,1.829-14.389
				l19.124,3.328l0.018,0.027c0.35,0.598,5.985,10.206,10.095,17.193c0.432,0.744,0.873,1.48,1.306,2.225
				c3.981,6.804,7.732,13.368,8.008,14.343c0.184,0.681,0.414,5.268,0.625,11.208C278.785,324.524,279.226,343.234,279.226,343.234z
				"/>
			<path style="fill:#D83D3D;" d="M269.683,286.342l-11.134,12.541c-2.197-1.849-4.634-3.936-7.052-6.077
				c-6.353-5.637-12.605-11.658-14.186-14.849c-3.512-7.061,1.829-14.389,1.829-14.389l19.124,3.328l0.018,0.027
				c0.35,0.598,5.985,10.206,10.095,17.193C268.809,284.861,269.25,285.597,269.683,286.342z"/>
			<path style="fill:#FFFFF6;" d="M279.226,343.234l-2.069,7.797l-5.691-6.454c0,0-6.997-22.765-6.556-27.527
				c0.12-1.333,0.35-2.804,0.598-4.22c4.257,0.8,8.716,0.487,12.807-0.938C278.785,324.524,279.226,343.234,279.226,343.234z"/>
			<g>
				<path style="fill:#FFFFF6;" d="M293.699,351.133c-0.127,1.585-7.69,3.678-9.556,3.784c-1.866,0.106-4.527-1.173-5.93-1.816
					c-1.403-0.635-7.256,1.283-8.693,0.007c-0.419-0.376-0.564-1.089-0.566-1.94c0.019-2.09,0.962-5.025,1.13-5.645
					c0.238-0.876,1.385-0.94,1.385-0.94s0.009,0.001,0.016,0.01c0.255,0.24,3.632,3.264,5.089,3.316
					c0.11,0.004,0.215-0.02,0.312-0.052c0.359,0.141,0.664,0.233,0.893,0.24c1.313,0.056,2.576-3.569,3.172-4.458
					c0.729,0.342,1.534,0.853,2.33,1.432c0.015,0.019,0.031,0.028,0.047,0.039c1.554,1.297,3.516,2.995,4.403,3.771
					c0.063,0.049,0.117,0.098,0.163,0.145c0.063,0.05,0.117,0.098,0.156,0.136c0.986,0.88,2.967,0.334,3.619,0.361
					c0.287,0.022,0.747,0.02,1.156,0.166C293.341,349.869,293.768,350.255,293.699,351.133z"/>
				<path style="fill:#242424;" d="M292.825,349.686c-1.385,1.494-7.612,3.176-9.28,3.27c-1.866,0.107-4.527-1.173-5.93-1.815
					c-1.395-0.634-7.168,1.258-8.661,0.026c0.019-2.09,0.962-5.025,1.13-5.645c0.238-0.876,1.385-0.94,1.385-0.94
					s0.009,0.001,0.016,0.01c0.255,0.24,3.632,3.264,5.089,3.316c0.11,0.004,0.215-0.02,0.312-0.052
					c1.291-0.542,1.926-4.574,2.34-4.623c0.481-0.051,1.077,0.107,1.726,0.405c0.729,0.342,1.534,0.853,2.33,1.432
					c0.015,0.019,0.031,0.028,0.047,0.039c1.807,1.324,3.585,2.994,4.403,3.771c0.063,0.049,0.117,0.098,0.163,0.145
					c0.063,0.05,0.117,0.098,0.156,0.136c0.986,0.88,2.967,0.334,3.619,0.361C291.956,349.543,292.415,349.541,292.825,349.686z"/>
				<path style="fill:#FFFFF6;" d="M283.989,344.326c-0.446-0.042-0.623,0.112-0.903,0.427c-0.224,0.253-0.456,0.501-0.67,0.763
					c-0.339,0.416-0.954,0.976-0.757,1.565c0.076,0.227,0.315,0.268,0.505,0.173c0.462-0.231,0.89-0.692,1.26-1.048
					c0.371-0.357,1.064-0.833,0.974-1.402C284.366,344.599,284.227,344.348,283.989,344.326z"/>
				<path style="fill:#FFFFF6;" d="M286.51,345.619c-0.631-0.049-1.108,0.356-1.604,0.717c-0.484,0.352-1.035,0.734-1.392,1.222
					c-0.281,0.384,0.028,1.015,0.546,0.824c0.544-0.2,1.028-0.559,1.515-0.868c0.441-0.28,1.127-0.578,1.32-1.085
					C287.007,346.134,286.911,345.65,286.51,345.619z"/>
			</g>
		</g>
		<g>
			<g>
				<path style="fill:#FFB4A0;" d="M258.263,266.897c0,0-0.974,18.268-1.756,26.865c-0.009,0.138-0.027,0.285-0.037,0.423
					c-0.874,9.442-2.335,19.593-4.597,20.999c-1.37,0.846-5.93,1.545-11.548,2.097c-12.311,1.231-29.715,1.792-29.715,1.792
					l-8.072,0.212l5.011-7.447c0,0,22.158-7.806,24.576-7.999c0.883-0.064,2.032,0.019,3.236,0.156
					c3.108,0.405,6.546,1.278,6.546,1.278c-0.211-0.727-1.729-6.335-3.337-12.587c-1.839-7.152-3.797-15.17-4.073-17.836
					c-1.158-5.627,2.979-11.566,2.979-11.566L258.263,266.897z"/>
			</g>
			<path style="fill:#FFFFF6;" d="M240.326,317.28c-12.311,1.231-29.715,1.792-29.715,1.792l-8.072,0.212l5.011-7.447
				c0,0,22.158-7.806,24.576-7.999c0.883-0.064,2.032,0.019,3.236,0.156C236.51,308.592,238.174,313.051,240.326,317.28z"/>
			<g>
				<path style="fill:#FFFFF6;" d="M206.161,334.954c-1.574,0.231-5.311-6.669-5.834-8.463c-0.523-1.794,0.126-4.675,0.438-6.187
					c0.304-1.51-2.879-6.782-1.958-8.47c0.273-0.493,0.935-0.794,1.764-0.987c2.041-0.451,5.114-0.191,5.755-0.167
					c0.907,0.036,1.228,1.139,1.228,1.139s0.001,0.009-0.006,0.018c-0.176,0.303-2.364,4.272-2.089,5.704
					c0.021,0.108,0.067,0.205,0.12,0.292c-0.056,0.382-0.077,0.699-0.033,0.925c0.241,1.291,4.057,1.708,5.057,2.09
					c-0.169,0.787-0.487,1.686-0.872,2.593c-0.015,0.019-0.021,0.036-0.027,0.055c-0.915,1.806-2.129,4.099-2.686,5.137
					c-0.034,0.072-0.069,0.136-0.105,0.191c-0.034,0.072-0.068,0.136-0.097,0.183c-0.635,1.158,0.341,2.966,0.461,3.607
					c0.042,0.284,0.147,0.731,0.098,1.163C207.311,334.321,207.031,334.823,206.161,334.954z"/>
				<path style="fill:#242424;" d="M207.373,333.776c-1.767-1.014-4.804-6.704-5.27-8.309c-0.523-1.794,0.126-4.675,0.438-6.187
					c0.304-1.502-2.836-6.703-1.971-8.434c2.041-0.451,5.114-0.191,5.755-0.167c0.907,0.036,1.228,1.139,1.228,1.139
					s0.001,0.009-0.006,0.018c-0.176,0.303-2.364,4.272-2.089,5.704c0.021,0.108,0.067,0.205,0.12,0.292
					c0.819,1.137,4.89,0.851,5.031,1.242c0.157,0.458,0.138,1.073-0.008,1.772c-0.169,0.787-0.487,1.686-0.872,2.593
					c-0.015,0.019-0.021,0.036-0.027,0.055c-0.885,2.058-2.113,4.165-2.686,5.137c-0.034,0.072-0.069,0.136-0.105,0.191
					c-0.034,0.072-0.068,0.136-0.097,0.183c-0.635,1.158,0.341,2.966,0.461,3.607C207.318,332.897,207.423,333.345,207.373,333.776z
					"/>
				<path style="fill:#FFFFF6;" d="M210.613,323.964c-0.06-0.445-0.249-0.583-0.619-0.784c-0.297-0.162-0.591-0.333-0.894-0.482
					c-0.481-0.237-1.165-0.711-1.694-0.387c-0.204,0.125-0.19,0.367-0.055,0.531c0.329,0.398,0.874,0.712,1.304,0.992
					c0.431,0.282,1.05,0.85,1.584,0.635C210.432,324.392,210.645,324.199,210.613,323.964z"/>
				<path style="fill:#FFFFF6;" d="M209.919,326.71c-0.095-0.626-0.597-0.999-1.059-1.401c-0.452-0.394-0.949-0.844-1.503-1.083
					c-0.437-0.188-0.983,0.256-0.681,0.718c0.318,0.485,0.776,0.876,1.186,1.281c0.372,0.366,0.816,0.968,1.354,1.043
					C209.529,327.31,209.979,327.108,209.919,326.71z"/>
			</g>
		</g>
		<g>
			<path style="fill:#004D60;" d="M265.744,226.12c2.066,0.743,3.891,10.169,4.746,15.378c0.337,2.021,0.522,3.407,0.522,3.407
				l17.508-7.74l3.553,4.922c0,0-13.727,14.222-19.427,15.03c-3.036,0.426-6.538-0.41-13.882-10.354
				c-0.113-0.15-0.227-0.308-0.34-0.465c-1.335-1.831-2.406-3.587-3.266-5.235c-3.666-7.034,1.484-15.628,9.402-15.148
				C265.034,225.943,265.436,226.009,265.744,226.12z"/>
			<g>
				<path style="fill:#FFB4A0;" d="M288.521,237.165c0,0,0.46-4.527,1.384-5.185c0.924-0.658,1.631,2.197,1.631,2.197
					s2.583-2.609,3.144-2.534c0.561,0.075,1.686,1.585,1.925,2.496c0,0,1.45,1.737,1.475,2.555c0.025,0.817-1.058,2.425-1.532,3.025
					c-0.474,0.6-4.474,2.368-4.474,2.368L288.521,237.165z"/>
			</g>
		</g>
		<path style="fill:#FF5F5C;" d="M258.263,266.897c0,0-0.974,18.268-1.756,26.865c-0.009,0.138-0.027,0.285-0.037,0.423
			c-5.995,0.552-12.081,0.046-17.901-1.499c-1.839-7.152-3.797-15.17-4.073-17.836c-1.158-5.627,2.979-11.566,2.979-11.566
			L258.263,266.897z"/>
		<path style="fill:#003948;" d="M262.985,224.887c-4.707-0.432-9.099,1.736-9.188,6.938c-0.048,2.854,1.388,5.55,2.574,8.058
			c1.615,3.414,3.235,6.91,5.899,9.634c0.142,0.146,0.354-0.039,0.27-0.209c-2.632-5.351-14.245-24.129,0.444-22.61
			C264.138,226.816,264.141,224.994,262.985,224.887z"/>
		<path style="fill:#004D60;" d="M273.816,202.514c-0.165-0.826-0.907-1.503-1.744-1.593c-0.244-1.048-1.258-2.168-2.288-2.479
			c-0.562-0.169-1.169-0.158-1.733,0.003c-0.306-0.408-0.76-0.728-1.229-0.943c-1.166-0.534-2.535-0.607-3.751-0.202
			c-0.869,0.29-1.646,0.83-2.247,1.521c-0.26-0.069-0.525-0.117-0.796-0.124c-0.939-0.025-1.9,0.37-2.485,1.105
			c-0.342,0.43-0.534,0.976-0.555,1.523c-0.624,0.162-1.193,0.535-1.539,1.081c-0.647,1.024-0.15,2.634,0.765,3.43
			c-1.035-0.015-2.031,0.746-2.29,1.749c-0.258,1.003,0.379,2.419,1.293,2.906c-0.255,0.281-0.452,0.688-0.628,1.024
			c-0.405,0.772-0.149,1.828,0.565,2.329c0.715,0.501,1.794,0.381,2.382-0.264c-0.202,0.718,0.154,1.365,0.79,1.755
			c0.635,0.39,1.526,0.304,2.074-0.201c0.25,0.517,0.803,0.797,1.377,0.773c0.573-0.024,1.19-0.712,1.396-1.248
			c-0.917,0.039-1.893-0.335-2.545-1.001c-0.643-0.657-0.589-1.839-0.037-2.574c0.552-0.734,1.704-0.971,2.449-0.434
			c0.494-0.093,1.068-0.483,1.236-0.957c0.168-0.474,0.065-1.033-0.26-1.416c0.51,0.029,1.116-0.223,1.429-0.626
			c0.313-0.403,0.413-0.963,0.259-1.45c0.878,0.274,1.786-0.396,1.929-1.305c0.375,0.374,1.024,0.459,1.549,0.389
			c0.525-0.07,1.01-0.395,1.274-0.854c0.609,0.582,1.626,0.628,2.364,0.222C273.559,204.25,273.982,203.34,273.816,202.514z"/>
	</g>
	<g>
		<path style="fill:#FC9382;" d="M149.79,267.197c0,0,11.169,27.751,12.574,33.175c1.101,4.248,5.129,46.38,5.129,46.38
			l-6.569-0.527l-1.438-3.977c0,0-7.27-25.694-7.27-29.808c0-4.113,0.548-10.279,0.548-10.279l-14.261-17.42l-1.914-13.438
			L149.79,267.197z"/>
		<polygon style="fill:#003948;" points="153.107,273.084 157.976,286.316 143.783,292.145 140.972,286.934 142.274,274.25 
			149.474,273.084 		"/>
		<path style="fill:#FFB4A0;" d="M149.792,267.195c0,0-4.501,13.362-5.735,17.682c-0.255,0.896-1.037,2.813-2.131,5.299
			c-4.155,9.445-12.77,27.135-13.913,28.435c-1.44,1.645-27.758,14.964-27.758,14.964s-5.241,1.697-6.558-0.428
			c-0.9-1.454,2.794-6.243,2.794-6.243s14.246-11.29,16.77-13.121c1.941-1.409,8.413-3.948,8.413-3.948
			c1.374-9.873,5.105-24.957,5.105-24.957s-1.646-8.228-1.811-11.108c-0.164-2.88,5.62-9.996,5.62-9.996L149.792,267.195z"/>
		<path style="fill:#14475A;" d="M149.792,267.757c0,0,0.682,4.296-0.592,9.323c-0.264,1.044-5.525,15.909-6.655,18.802l-9.29-4.07
			l-1.274-5.688l-2.047,3.522l-5.767-1.307c0,0-0.485-9.616,0-12.93c0.555-3.793,5.801-11.636,5.801-11.636L149.792,267.757z"/>
		<g>
			<path style="fill:#FC9382;" d="M126.659,260.065c0,0-15.991-17.511-16.613-20.984c-0.622-3.474,17.788-15.852,20.479-17.156
				c2.69-1.304,7.262-3.224,9.399-0.881c3.871,4.243,1.105,7.148-2.123,9.778c-3.229,2.63-16.936,10.807-16.936,10.807
				l10.829,15.153L126.659,260.065z"/>
			<path style="fill:#FC9382;" d="M131.694,256.781c0,0,6.198-1.311,7.028-0.167c0.83,1.144-2.72,2.056-2.72,2.056
				s3.279,3.189,3.191,3.889c-0.087,0.7-1.956,2.118-3.088,2.426c0,0-2.148,1.825-3.167,1.865c-1.019,0.041-3.033-1.292-3.785-1.876
				c-0.752-0.584-2.494-4.909-2.494-4.909L131.694,256.781z"/>
		</g>
		<g>
			<polygon style="fill:#FFB4A0;" points="145.133,213.871 144.211,221.426 136.861,220.529 137.546,214.918 140.826,210.66 
				142.719,208.189 			"/>
			<path style="fill:#FC9382;" d="M145.133,213.871l-0.302,2.475c-0.88-0.53-1.655-1.246-2.276-2.068
				c-0.627-0.839-1.36-2.238-1.73-3.618l1.893-2.471L145.133,213.871z"/>
			<path style="fill:#FFB4A0;" d="M155.288,209.161c-0.088-0.361-0.248-0.705-0.407-1.048c-0.328-0.706-0.656-1.413-0.984-2.119
				c-0.062-0.134-0.122-0.27-0.188-0.402c-0.266-3.606-0.951-6.98-1.604-7.758c-1.357-1.616-5.717-0.698-5.717-0.698
				s-3.324,3.06-4.165,7.777c-0.351-0.493-0.833-0.861-1.446-0.622c-1.414,0.553-2.276,2.52-1.315,3.984
				c0.581,0.884,1.901,1.253,2.858,1.408c0.147,0.669,0.25,1.403,0.628,2.057c3.938,6.802,9.073,3.967,9.594,3.357
				c0.752-0.88,1.124-2.727,1.241-4.901c0.339-0.055,0.673-0.134,0.985-0.262c0.233-0.096,0.477-0.233,0.536-0.45
				C155.333,209.378,155.314,209.267,155.288,209.161z"/>
		</g>
		<path style="fill:#FFFFF6;" d="M136.888,218.954c0,0,9.918,1.338,11.037,2.925c1.119,1.587,11.477,15.225,10.653,18.578
			c-0.823,3.354-6.637,10.241-6.637,10.241s1.689,11.908,2.71,24.717l-5.917,0.607c-8.545,0.283-16.95-2.221-23.949-7.132l0,0
			c0,0,8.178-19.472,8.001-21.979c-0.178-2.509-3.696-13.298-3.281-16.701C129.92,226.807,132.242,220.804,136.888,218.954z"/>
		<g>
			<path style="fill:#FFB4A0;" d="M175.8,245.525c0,0-21.312,10.399-24.82,10.016c-3.508-0.383-10.188-21.538-10.68-24.487
				s-1.044-7.877,1.806-9.266c5.163-2.517,7.17,0.957,8.782,4.796c1.612,3.839,5.589,19.298,5.589,19.298l17.594-6.113
				L175.8,245.525z"/>
			<path style="fill:#FFB4A0;" d="M174.071,239.769c0,0,0.49-6.316,1.822-6.79c1.332-0.473,1.205,3.19,1.205,3.19
				s3.984-2.246,4.632-1.964c0.647,0.282,1.479,2.474,1.456,3.648c0,0,1.145,2.575,0.896,3.563
				c-0.249,0.988-2.095,2.545-2.868,3.103c-0.773,0.557-5.413,1.007-5.413,1.007L174.071,239.769z"/>
		</g>
		<g>
			<path style="fill:#FFFFF6;" d="M181.666,346.288c0.041,1.547-7.06,4.353-8.853,4.649c-1.794,0.296-4.501-0.667-5.924-1.144
				c-1.423-0.47-6.887,1.99-8.409,0.904c-0.444-0.32-0.658-0.995-0.749-1.818c-0.197-2.023,0.412-4.961,0.51-5.578
				c0.14-0.872,1.243-1.053,1.243-1.053s0.008,0,0.016,0.008c0.271,0.206,3.851,2.781,5.266,2.683
				c0.107-0.009,0.206-0.041,0.296-0.083c0.362,0.1,0.667,0.156,0.889,0.141c1.275-0.083,2.122-3.72,2.608-4.641
				c0.74,0.255,1.571,0.666,2.402,1.144c0.016,0.017,0.033,0.024,0.049,0.033c1.637,1.094,3.71,2.534,4.648,3.192
				c0.066,0.041,0.124,0.082,0.173,0.123c0.066,0.041,0.124,0.082,0.165,0.115c1.045,0.749,2.904,0.017,3.538-0.024
				c0.28-0.009,0.724-0.058,1.135,0.041C181.189,345.103,181.642,345.433,181.666,346.288z"/>
			<path style="fill:#242424;" d="M180.67,344.98c-1.185,1.588-7.035,3.858-8.639,4.122c-1.793,0.296-4.5-0.667-5.924-1.143
				c-1.415-0.47-6.804,1.958-8.376,0.921c-0.197-2.023,0.412-4.961,0.51-5.578c0.14-0.872,1.243-1.053,1.243-1.053
				s0.008,0,0.016,0.008c0.271,0.206,3.851,2.781,5.266,2.683c0.107-0.009,0.206-0.041,0.296-0.083
				c1.193-0.658,1.391-4.624,1.786-4.714c0.46-0.099,1.053-0.009,1.712,0.214c0.74,0.255,1.571,0.666,2.402,1.144
				c0.016,0.017,0.033,0.024,0.049,0.033c1.884,1.094,3.776,2.525,4.648,3.192c0.066,0.041,0.124,0.082,0.173,0.123
				c0.066,0.041,0.124,0.082,0.165,0.115c1.045,0.749,2.904,0.017,3.538-0.024C179.815,344.931,180.259,344.882,180.67,344.98z"/>
			<path style="fill:#FFFFF6;" d="M171.57,340.708c-0.436,0.006-0.591,0.173-0.829,0.507c-0.191,0.268-0.39,0.531-0.57,0.807
				c-0.285,0.438-0.822,1.042-0.571,1.592c0.097,0.211,0.333,0.226,0.506,0.114c0.424-0.271,0.789-0.762,1.11-1.143
				c0.322-0.384,0.943-0.916,0.797-1.457C171.962,340.933,171.801,340.705,171.57,340.708z"/>
			<path style="fill:#FFFFF6;" d="M174.142,341.698c-0.616,0.019-1.035,0.46-1.478,0.859c-0.433,0.391-0.925,0.817-1.22,1.325
				c-0.232,0.4,0.132,0.979,0.613,0.741c0.505-0.25,0.937-0.647,1.376-0.996c0.397-0.316,1.03-0.676,1.165-1.186
				C174.676,342.145,174.533,341.686,174.142,341.698z"/>
		</g>
		<g>
			<path style="fill:#FFFFF6;" d="M97.729,349.416c-1.495,0.4-5.877-5.851-6.583-7.526c-0.706-1.676-0.4-4.532-0.268-6.027
				c0.125-1.493-3.54-6.233-2.839-7.967c0.209-0.507,0.815-0.872,1.594-1.151c1.922-0.664,4.92-0.756,5.543-0.804
				c0.881-0.067,1.313,0.963,1.313,0.963s0.003,0.008-0.004,0.018c-0.137,0.313-1.808,4.393-1.382,5.746
				c0.033,0.103,0.088,0.19,0.149,0.268c-0.012,0.375,0.003,0.685,0.071,0.898c0.377,1.221,4.111,1.197,5.12,1.455
				c-0.076,0.779-0.282,1.684-0.552,2.603c-0.012,0.021-0.017,0.038-0.021,0.056c-0.683,1.848-1.6,4.199-2.022,5.265
				c-0.024,0.073-0.051,0.14-0.08,0.196c-0.025,0.074-0.051,0.14-0.074,0.188c-0.485,1.19,0.661,2.828,0.848,3.435
				c0.073,0.271,0.225,0.69,0.225,1.114C98.771,348.676,98.556,349.192,97.729,349.416z"/>
			<path style="fill:#242424;" d="M98.77,348.144c-1.82-0.782-5.392-5.942-6.021-7.441c-0.705-1.676-0.4-4.532-0.267-6.027
				c0.126-1.485-3.489-6.161-2.847-7.931c1.922-0.664,4.92-0.756,5.543-0.804c0.881-0.067,1.313,0.963,1.313,0.963
				s0.003,0.008-0.004,0.018c-0.137,0.313-1.808,4.393-1.382,5.746c0.033,0.103,0.088,0.19,0.149,0.268
				c0.918,1.007,4.821,0.275,5.001,0.639c0.203,0.425,0.253,1.022,0.19,1.714c-0.076,0.779-0.282,1.684-0.552,2.603
				c-0.012,0.021-0.017,0.038-0.021,0.056c-0.625,2.088-1.577,4.262-2.022,5.265c-0.024,0.073-0.051,0.14-0.08,0.196
				c-0.025,0.074-0.051,0.14-0.074,0.188c-0.485,1.19,0.661,2.828,0.848,3.435C98.619,347.3,98.77,347.72,98.77,348.144z"/>
			<path style="fill:#FFFFF6;" d="M100.805,338.298c-0.107-0.423-0.306-0.535-0.686-0.689c-0.305-0.123-0.608-0.256-0.918-0.366
				c-0.492-0.175-1.205-0.557-1.681-0.184c-0.182,0.142-0.142,0.375,0.007,0.518c0.362,0.349,0.924,0.59,1.371,0.814
				c0.448,0.224,1.11,0.703,1.602,0.435C100.678,338.731,100.862,338.522,100.805,338.298z"/>
			<path style="fill:#FFFFF6;" d="M100.441,341.029c-0.161-0.594-0.688-0.898-1.18-1.236c-0.48-0.329-1.011-0.709-1.573-0.878
				c-0.443-0.133-0.921,0.357-0.578,0.77c0.361,0.433,0.848,0.76,1.289,1.105c0.4,0.313,0.897,0.845,1.425,0.857
				C100.131,341.653,100.543,341.407,100.441,341.029z"/>
		</g>
		<path style="fill:#004D60;" d="M142.566,209.427c-0.344,0.375-0.969,1.252-1.314,1.627c-1.426,1.552-2.958,3.197-3.73,5.158
			c-3.889-0.37-7.598-2.363-10.052-5.402c-0.595-0.737-1.132-1.567-1.269-2.505c1.372-0.254,2.592-1.105,3.454-2.203
			c0.862-1.098,1.387-2.431,1.692-3.792c0.299-1.335,0.4-2.722,0.888-4c0.732-1.919,2.305-3.444,4.122-4.401
			c1.818-0.958,3.872-1.39,5.918-1.574c1.974-0.177,3.996-0.126,5.888,0.462c1.892,0.589,3.651,1.759,4.678,3.454
			c0.46,0.759,0.764,1.602,1.034,2.448c0.198,0.619,0.204,1.504,0.158,2.153l-4.319,0.565l-1.234-2.674v2.417
			c-0.874,0.257-2.982,0.514-2.982,0.514c0.103,1.8-1.851,5.553-1.851,5.553s-0.231-1.696-1.423-2.315
			c-1.533-0.796-3.339,0.821-3.173,2.2c0.087,0.727,0.648,1.313,1.244,1.686c0.313,0.195,0.651,0.333,1.004,0.433
			c0.212,0.06,0.429,0.105,0.647,0.138C142.032,209.382,142.508,209.49,142.566,209.427z"/>
		<path style="fill:#FC9382;" d="M142.129,205.734c-0.752-0.628-2.192-0.072-2.138,0.955c0.003,0.062,0.087,0.073,0.107,0.015
			c0.307-0.889,1.517-1.152,2.001-0.29c0.09,0.161,0.144,0.317,0.173,0.471c-0.242-0.143-0.644-0.183-0.822-0.146
			c-0.478,0.096-0.869,0.624-0.66,1.096c0.086,0.193,0.335,0.066,0.354-0.096c0.034-0.286,0.107-0.521,0.412-0.618
			c0.116-0.037,0.714-0.044,0.703,0.111c-0.002,0.028,0.007,0.05,0.022,0.066c-0.05,0.355-0.243,0.688-0.531,0.99
			c-0.127,0.133,0.039,0.37,0.203,0.262C142.886,207.936,142.99,206.453,142.129,205.734z"/>
	</g>
	<g>
		<g>
			<path style="fill:#FC9382;" d="M185.657,287.884c0,0-7.233,34.454-9.413,40.682c-1.708,4.878-25.438,48.764-25.438,48.764
				l-6.132-4.796l1.197-4.831c0,0,9.346-31.657,12.051-35.687c2.705-4.028,5.761-8.417,5.761-8.417l1.827-43.003l9.392-0.79
				L185.657,287.884z"/>
			<path style="fill:#009983;" d="M165.302,276.567c0,0-3.193,15.191-2.676,29.992c1.95,0.528,3.938,1.015,5.957,0.958
				c2.019-0.058,4.115-0.791,5.36-2.382c0.395,1.775,1.184,3.43,2.615,4.552c1.431,1.123,3.256,1.731,5.075,1.693
				c3.035-4.948,5.436-10.176,7.341-15.659c0.902-2.6,1.681-5.342,1.321-8.069c-0.65-4.931-4.982-8.736-9.709-10.282
				C175.86,275.824,170.275,276.567,165.302,276.567z"/>
			<g>
				<path style="fill:#FFFFF6;" d="M145.732,368.016l1.41-5.984l10.779,3.819l-3.542,4.899c0,0-4.357,6.209-5.892,5.272
					C146.952,375.085,145.732,368.016,145.732,368.016z"/>
				<g>
					<path style="fill:#FFFFF6;" d="M164.951,386.424c-0.977,1.541-9.824-0.337-11.788-1.216c-1.963-0.878-4-3.585-5.09-4.98
						c-1.095-1.387-8.1-2.536-8.888-4.592c-0.227-0.603,0.006-1.403,0.458-2.268c1.136-2.111,3.668-4.591,4.171-5.131
						c0.711-0.763,1.918-0.222,1.918-0.222s0.008,0.005,0.011,0.019c0.132,0.378,1.969,5.232,3.429,6.058
						c0.111,0.061,0.23,0.094,0.346,0.112c0.292,0.332,0.555,0.587,0.785,0.716c1.312,0.75,4.539-2.259,5.624-2.845
						c0.563,0.731,1.111,1.676,1.617,2.685c0.005,0.027,0.016,0.046,0.027,0.064c0.895,2.139,1.993,4.899,2.485,6.155
						c0.038,0.083,0.068,0.161,0.089,0.233c0.038,0.083,0.068,0.161,0.086,0.22c0.538,1.414,2.854,1.908,3.505,2.281
						c0.281,0.174,0.752,0.415,1.093,0.78C165.26,384.952,165.489,385.569,164.951,386.424z"/>
					<path style="fill:#14475A;" d="M164.83,384.494c-2.212,0.783-9.475-0.805-11.23-1.592c-1.963-0.879-4-3.585-5.09-4.979
						c-1.087-1.382-7.998-2.516-8.866-4.555c1.136-2.111,3.668-4.591,4.171-5.131c0.711-0.763,1.918-0.222,1.918-0.222
						s0.008,0.005,0.011,0.019c0.132,0.378,1.969,5.232,3.429,6.058c0.111,0.061,0.23,0.094,0.346,0.112
						c1.609,0.133,4.412-3.623,4.861-3.454c0.52,0.204,1.044,0.679,1.547,1.325c0.563,0.731,1.111,1.676,1.617,2.685
						c0.005,0.027,0.016,0.046,0.027,0.064c1.139,2.3,2.064,4.935,2.485,6.155c0.038,0.083,0.068,0.161,0.089,0.233
						c0.038,0.083,0.068,0.161,0.086,0.22c0.538,1.414,2.854,1.908,3.505,2.281C164.018,383.888,164.489,384.129,164.83,384.494z"/>
					<path style="fill:#FFFFF6;" d="M158.664,374.381c-0.434-0.278-0.697-0.216-1.15-0.045c-0.365,0.138-0.735,0.267-1.093,0.42
						c-0.569,0.242-1.496,0.484-1.609,1.187c-0.043,0.27,0.179,0.438,0.424,0.441c0.596,0.011,1.279-0.231,1.847-0.396
						c0.57-0.165,1.532-0.282,1.744-0.907C158.903,374.855,158.895,374.528,158.664,374.381z"/>
					<path style="fill:#FFFFF6;" d="M160.549,377.026c-0.619-0.384-1.323-0.225-2.022-0.121c-0.684,0.101-1.451,0.197-2.075,0.503
						c-0.492,0.24-0.514,1.045,0.118,1.125c0.663,0.085,1.35-0.023,2.012-0.079c0.6-0.051,1.46,0.009,1.928-0.403
						C160.782,377.811,160.942,377.27,160.549,377.026z"/>
				</g>
			</g>
		</g>
		<g>
			<g>
				<path style="fill:#FFB4A0;" d="M166.948,275.563c0,0-3.065,5.62-3.065,9.19c0,3.047,0.796,10.11,5.498,15.251
					c4.701,5.141,21.372,21.805,21.372,21.805s-6.194,5.478-7.479,10.767s-6.264,26.538-6.264,26.538l5.353,3.062
					c0,0,21.78-37.214,21.043-42.52c-0.737-5.306-13.684-36.501-13.684-36.501L166.948,275.563z"/>
				<path style="fill:#00B6A5;" d="M195.956,294.96c-1.442,2.205-3.759,3.814-6.317,4.392c-2.568,0.576-5.396,0.177-7.639-1.191
					c0.475,1.609,0.223,3.415-0.679,4.829c-1.386,2.158-4.094,3.099-6.541,3.889c-0.484-0.362-0.949-0.734-1.414-1.125
					c0,0,0,0-0.009,0c-4.103-3.368-7.583-7.574-9.369-12.552c-1.991-5.555-1.61-12.133,1.87-16.887l1.898,0.074l5.024,0.185
					l16.19,0.614l6.159,15.659L195.956,294.96z"/>
				<path style="fill:#FFFFF6;" d="M195.956,294.96c-1.442,2.205-3.759,3.814-6.317,4.392c-2.568,0.576-5.396,0.177-7.639-1.191
					c0.475,1.609,0.223,3.415-0.679,4.829c-1.386,2.158-4.094,3.099-6.541,3.889c-0.484-0.362-0.949-0.734-1.414-1.125
					c0.661-0.158,1.303-0.354,1.916-0.624c1.656-0.697,3.164-1.954,3.75-3.647c0.568-1.618,0.242-3.405-0.204-5.061
					c-1.982-7.435-6.122-14.124-11.072-20.032l5.024,0.185c2.475,4.513,5.071,8.904,7.937,13.222
					c1.498,2.252,3.229,4.615,5.816,5.415c1.954,0.604,4.112,0.187,5.955-0.707c0.939-0.456,1.805-1.033,2.642-1.656L195.956,294.96
					z"/>
			</g>
			<polygon style="fill:#FFFFF6;" points="176.395,358.224 177.787,352.204 186.641,356.78 184.005,360.84 180.268,364.692 
				176.76,364.692 175.948,360.33 			"/>
			<g>
				<path style="fill:#FFFFF6;" d="M193.064,375.091c-0.899,1.358-8.714-0.514-10.439-1.342c-1.725-0.829-3.477-3.294-4.415-4.565
					c-0.943-1.264-7.139-2.444-7.795-4.3c-0.189-0.545,0.034-1.256,0.454-2.02c1.053-1.864,3.352-4.028,3.81-4.5
					c0.648-0.668,1.707-0.157,1.707-0.157s0.007,0.005,0.009,0.017c0.11,0.342,1.639,4.724,2.918,5.493
					c0.097,0.058,0.202,0.089,0.305,0.108c0.252,0.304,0.48,0.537,0.682,0.657c1.148,0.699,4.076-1.923,5.052-2.424
					c0.484,0.667,0.952,1.523,1.379,2.438c0.004,0.023,0.014,0.041,0.023,0.058c0.75,1.933,1.667,4.427,2.078,5.561
					c0.032,0.075,0.057,0.146,0.074,0.211c0.032,0.075,0.057,0.146,0.072,0.198c0.448,1.277,2.494,1.77,3.064,2.116
					c0.246,0.162,0.659,0.389,0.954,0.722C193.369,373.781,193.56,374.338,193.064,375.091z"/>
				<path style="fill:#14475A;" d="M192.997,373.361c-1.98,0.653-8.395-0.924-9.936-1.666c-1.725-0.829-3.477-3.294-4.416-4.565
					c-0.936-1.259-7.048-2.423-7.776-4.266c1.053-1.864,3.352-4.028,3.81-4.5c0.648-0.668,1.707-0.157,1.707-0.157
					s0.007,0.005,0.009,0.017c0.11,0.342,1.639,4.724,2.918,5.493c0.097,0.058,0.202,0.089,0.305,0.108
					c1.426,0.153,3.992-3.146,4.387-2.985c0.457,0.193,0.913,0.63,1.346,1.219c0.484,0.667,0.952,1.523,1.379,2.438
					c0.004,0.023,0.014,0.041,0.023,0.058c0.963,2.082,1.729,4.459,2.078,5.561c0.032,0.075,0.057,0.146,0.074,0.211
					c0.032,0.075,0.057,0.146,0.072,0.198c0.448,1.277,2.494,1.77,3.064,2.116C192.289,372.802,192.702,373.028,192.997,373.361z"/>
				<path style="fill:#FFFFF6;" d="M187.734,364.181c-0.38-0.259-0.614-0.208-1.021-0.064c-0.327,0.115-0.658,0.223-0.979,0.352
					c-0.51,0.205-1.338,0.401-1.454,1.027c-0.044,0.239,0.15,0.395,0.367,0.404c0.529,0.021,1.14-0.18,1.648-0.315
					c0.509-0.136,1.366-0.22,1.567-0.773C187.936,364.611,187.936,364.317,187.734,364.181z"/>
				<path style="fill:#FFFFF6;" d="M189.352,366.588c-0.542-0.355-1.17-0.229-1.792-0.151c-0.609,0.075-1.292,0.146-1.853,0.404
					c-0.442,0.205-0.478,0.924,0.081,1.01c0.587,0.09,1.199,0.009,1.788-0.027c0.534-0.032,1.296,0.04,1.72-0.318
					C189.543,367.296,189.696,366.814,189.352,366.588z"/>
			</g>
		</g>
		<g>
			<g>
				<g>
					<path style="fill:#FC9382;" d="M199.292,252.682c0,0-1.124-1.042-2.826-2.597l-3.518,13.28
						c3.237,1.972,5.917,3.141,7.061,2.569c3.771-1.881,18.458-26.088,18.458-26.088l-5.454-4.665L199.292,252.682z"/>
				</g>
				<path style="fill:#FC9382;" d="M213.014,235.18c0,0-3.587-6.66-2.555-7.996c1.032-1.335,3.27,2.426,3.27,2.426
					s2.551-4.829,3.383-4.964c0.832-0.135,3.084,1.529,3.817,2.724c0,0,2.814,1.847,3.202,3.001
					c0.389,1.153-0.461,3.909-0.877,4.968c-0.416,1.059-4.787,4.507-4.787,4.507L213.014,235.18z"/>
			</g>
		</g>
		<g>
			<polygon style="fill:#FFB4A0;" points="195.374,213.82 193.626,222.738 184.949,221.036 187.689,209.05 190.52,209.625 
				192.988,206.845 			"/>
			<path style="fill:#FC9382;" d="M195.374,213.82l-0.573,2.921c-1.003-0.707-1.863-1.627-2.532-2.659
				c-0.674-1.053-1.427-2.783-1.749-4.458l2.468-2.78L195.374,213.82z"/>
			<g>
				<path style="fill:#FFB4A0;" d="M206.463,207.081c-0.14-0.421-0.363-0.815-0.585-1.208c-0.458-0.809-0.917-1.619-1.374-2.428
					c-0.087-0.153-0.171-0.31-0.263-0.461c-0.662-4.266-1.799-8.217-2.651-9.08c-1.77-1.793-6.871-0.283-6.871-0.283
					s-3.663,3.96-4.212,9.654c-0.464-0.553-1.074-0.945-1.781-0.601c-1.63,0.794-2.468,3.217-1.184,4.868
					c0.775,0.997,2.382,1.309,3.536,1.401c0.239,0.783,0.432,1.646,0.945,2.388c5.338,7.719,11.178,3.854,11.74,3.077
					c0.811-1.119,1.077-3.352,1.007-5.952c0.399-0.098,0.789-0.224,1.147-0.406c0.269-0.136,0.545-0.324,0.596-0.586
					C206.538,207.335,206.504,207.205,206.463,207.081z"/>
				<path style="fill:#FC9382;" d="M190.473,204.262c-0.955-0.676-2.616,0.124-2.453,1.34c0.01,0.074,0.111,0.079,0.129,0.007
					c0.279-1.087,1.695-1.516,2.354-0.536c0.123,0.183,0.202,0.364,0.251,0.544c-0.302-0.146-0.783-0.156-0.993-0.096
					c-0.56,0.16-0.975,0.826-0.681,1.367c0.121,0.222,0.404,0.046,0.412-0.148c0.013-0.344,0.078-0.631,0.431-0.775
					c0.135-0.055,0.845-0.121,0.847,0.065c0,0.034,0.013,0.059,0.032,0.077c-0.025,0.428-0.223,0.842-0.538,1.229
					c-0.138,0.17,0.082,0.437,0.266,0.293C191.585,206.81,191.566,205.036,190.473,204.262z"/>
			</g>
		</g>
		<path style="fill:#FF5F5C;" d="M182.887,217.387c0,0,11.144,2.341,12.266,4.322c1.122,1.981,8.821,17.825,7.57,21.773
			c-1.251,3.947-5.717,12.984-5.717,12.984s-6.926,8.045-6.97,23.435c0,0-17.803,3.97-25.293-2.425c0,0,10.821-23.957,10.855-26.969
			c0.034-3.012-2.949-16.176-2.157-20.213C174.231,226.255,177.433,219.252,182.887,217.387z"/>
		<g>
			<path style="fill:#FFB4A0;" d="M190.971,268.733c0,0-27.162-7.998-29.945-11.162c-2.784-3.163,8.367-27.191,10.308-30.186
				c1.941-2.996,5.424-7.784,9.056-6.713c6.579,1.94,5.55,6.619,3.878,11.301c-1.671,4.683-10.616,21.512-10.616,21.512
				l20.432,8.782L190.971,268.733z"/>
			<path style="fill:#FFB4A0;" d="M194.084,262.267c0,0,5.52-5.173,7.075-4.518c1.555,0.655-1.507,3.782-1.507,3.782
				s5.321,1.23,5.665,1.999c0.344,0.77-0.689,3.372-1.655,4.388c0,0-1.065,3.192-2.081,3.863c-1.015,0.671-3.897,0.556-5.027,0.425
				c-1.13-0.132-5.582-3.473-5.582-3.473L194.084,262.267z"/>
		</g>
		<path style="fill:#FF5F5C;" d="M182.887,217.387c0,0-6.682,0.956-9.078,3.132c-2.395,2.176-6.672,11.145-6.672,11.145
			l15.397,6.942l6.159-7.455c0,0,0.171-7.172,0-7.429C188.523,223.464,182.887,217.387,182.887,217.387z"/>
		<path style="fill:#D83D3D;" d="M184.917,220.484c-0.242-0.243-0.604,0.124-0.374,0.374c3.727,4.054,1.742,12.052-0.813,16.16
			c-0.581,0.934,0.838,1.72,1.455,0.85C188.697,232.91,189.456,225.035,184.917,220.484z"/>
		<path style="fill:#004D60;" d="M199.404,191.369c-3.006-2.036-7.183-2.512-10.628-1.407c-3.805,1.221-6.684,4.42-7.008,8.334
			c-0.133,1.61-0.225,2.973,0.17,4.577c0.395,1.602,1.02,3.148,1.733,4.636c0.848,1.771,1.82,3.517,2.947,5.134
			c0,0,4.155-2.909,4.624-3.7c0,0-5.454-1.085-3.472-5.397c0,0,1.774-1.872,3.706,0.469c0,0,4.255-6.77,4.138-8.887
			c0,0,4.457-1.328,6.648-0.061c0-0.708-0.556-1.517-0.848-1.874C200.837,192.488,200.157,191.879,199.404,191.369z"/>
		<path style="fill:#FFFFF6;" d="M180.859,199.546c0,0,20.067-7.162,20.945-6.892c0.878,0.27,1.757,3.142,1.352,3.442
			c-0.405,0.3-22.296,5.477-22.296,5.477V199.546z"/>
		<path style="fill:#004D60;" d="M171.179,206.902c-1.446,1.494-2.559,3.294-4.075,4.717c-2.777,2.604-6.874,3.723-10.589,2.89
			c3.249,2.936,7.514,4.726,11.885,4.987c1.636,0.097,3.352-0.032,4.771-0.851c1.474-0.85,2.468-2.355,3.102-3.934
			c0.634-1.579,0.958-3.262,1.425-4.898c0.467-1.636,1.103-3.272,2.245-4.533c1.142-1.261,2.877-2.091,4.549-1.779
			c-1.056-0.197-1.981-0.913-3.039-0.963c-1.255-0.059-2.591,0.199-3.793,0.536C175.217,203.758,172.946,205.076,171.179,206.902z"
			/>
	</g>
	<g>
		<g>
			<path style="fill:#FC9382;" d="M365.099,393.101l-2.259,4.681l-7.632-4.908l-0.497-1.514c-0.097-0.291-0.206-0.616-0.324-0.973
				l-0.249-0.746c-0.13-0.399-0.271-0.821-0.422-1.265l-0.465-1.416c-0.173-0.508-0.346-1.038-0.519-1.578h-0.011
				c-2.346-7.07-5.654-16.919-6.67-19.459c-1.622-4.043-1.373-12.929-1.373-12.929l-24.95-21.567l-7.329-16.259l20.14-8.961
				c0,0,20.021,32.853,23.783,39.177l7.016,38.117L365.099,393.101z"/>
			<polygon style="fill:#FFFFF6;" points="365.099,393.101 362.839,397.781 355.207,392.873 354.71,391.359 354.386,390.387 
				354.137,389.641 353.715,388.376 353.25,386.96 352.721,385.382 352.732,385.382 363.336,383.501 			"/>
			<path style="fill:#009983;" d="M356.321,345.384l-11.643,7.61l-24.95-21.567l-7.329-16.259l20.14-8.961
				C332.538,306.207,352.559,339.06,356.321,345.384z"/>
			<g>
				<path style="fill:#FFFFF6;" d="M384.464,397.362c0.11,2.029-9.113,5.973-11.458,6.427c-2.345,0.454-5.935-0.712-7.822-1.287
					c-1.887-0.565-8.973,2.865-11.011,1.494c-0.595-0.405-0.901-1.284-1.049-2.361c-0.333-2.651,0.36-6.531,0.467-7.345
					c0.152-1.151,1.594-1.429,1.594-1.429s0.011,0,0.021,0.01c0.364,0.261,5.159,3.513,7.014,3.332
					c0.14-0.015,0.269-0.061,0.386-0.119c0.479,0.117,0.881,0.182,1.172,0.152c1.672-0.155,2.653-4.962,3.257-6.189
					c0.982,0.308,2.088,0.817,3.197,1.414c0.022,0.021,0.044,0.031,0.066,0.042c2.19,1.378,4.966,3.193,6.221,4.023
					c0.088,0.052,0.166,0.104,0.231,0.156c0.088,0.052,0.165,0.104,0.22,0.146c1.4,0.945,3.815-0.084,4.646-0.161
					c0.367-0.021,0.949-0.102,1.493,0.013C383.794,395.823,384.4,396.239,384.464,397.362z"/>
				<path style="fill:#FF5F5C;" d="M383.109,395.68c-1.498,2.129-9.099,5.323-11.197,5.728c-2.345,0.454-5.935-0.712-7.822-1.287
					c-1.876-0.564-8.866,2.819-10.967,1.515c-0.333-2.651,0.36-6.531,0.467-7.345c0.152-1.151,1.594-1.429,1.594-1.429
					s0.011,0,0.021,0.01c0.364,0.261,5.159,3.513,7.014,3.332c0.14-0.015,0.269-0.061,0.386-0.119
					c1.543-0.907,1.659-6.123,2.174-6.257c0.602-0.145,1.383-0.049,2.255,0.22c0.982,0.308,2.088,0.817,3.197,1.414
					c0.022,0.021,0.044,0.031,0.066,0.042c2.514,1.368,5.052,3.18,6.221,4.023c0.088,0.052,0.166,0.104,0.231,0.156
					c0.088,0.052,0.165,0.104,0.22,0.146c1.4,0.945,3.815-0.084,4.646-0.161C381.983,395.646,382.565,395.565,383.109,395.68z"/>
				<path style="fill:#FFFFF6;" d="M371.001,390.399c-0.573,0.023-0.771,0.248-1.07,0.694c-0.241,0.359-0.493,0.713-0.719,1.081
					c-0.358,0.585-1.042,1.398-0.691,2.111c0.134,0.273,0.444,0.284,0.669,0.132c0.546-0.371,1.009-1.028,1.417-1.543
					c0.409-0.515,1.204-1.236,0.994-1.941C371.524,390.68,371.305,390.387,371.001,390.399z"/>
				<path style="fill:#FFFFF6;" d="M374.415,391.606c-0.808,0.046-1.343,0.641-1.909,1.182c-0.554,0.528-1.186,1.108-1.555,1.785
					c-0.291,0.534,0.208,1.281,0.832,0.951c0.655-0.347,1.207-0.884,1.771-1.358c0.511-0.43,1.329-0.925,1.487-1.601
					C375.133,392.174,374.929,391.577,374.415,391.606z"/>
			</g>
		</g>
		<g>
			<path style="fill:#FFB4A0;" d="M332.538,306.207c0,0-4.011,21.21-21.458,37.608c-9.881,9.286-26.172,29.459-28.096,30.68
				c-1.914,1.211-26.183,5.859-36.226,7.752c-2.648,0.497-4.313,0.8-4.313,0.8s-7.232,0.194-8.107-2.974
				c-0.573-2.107,5.459-6.551,5.816-6.821l0.021-0.011l2.065-0.832l0.692-0.281l0.692-0.27c6.378-2.572,19.653-7.891,22.561-8.929
				c2.973-1.06,12.064-1.849,12.064-1.849c5.405-11.935,15.708-29.566,15.708-29.566s0.984-10.973,1.838-14.67
				c0.865-3.686,9.308-13.026,9.308-13.026L332.538,306.207z"/>
			<path style="fill:#FFFFF6;" d="M246.758,382.247c-2.648,0.497-4.313,0.8-4.313,0.8s-7.232,0.194-8.107-2.974
				c-0.573-2.107,5.459-6.551,5.816-6.821l0.021-0.011l2.065-0.832l0.692-0.281l0.692-0.27L246.758,382.247z"/>
			<g>
				<path style="fill:#FFFFF6;" d="M233.378,402.073c-2.032-0.051-5.235-9.558-5.502-11.931c-0.268-2.373,1.178-5.86,1.9-7.696
					c0.711-1.836-2.148-9.171-0.62-11.095c0.451-0.561,1.351-0.796,2.437-0.859c2.669-0.122,6.482,0.875,7.285,1.046
					c1.135,0.242,1.298,1.701,1.298,1.701s-0.001,0.011-0.012,0.021c-0.289,0.342-3.909,4.864-3.875,6.729
					c0.003,0.141,0.04,0.272,0.088,0.394c-0.154,0.469-0.25,0.864-0.244,1.156c0.022,1.68,4.737,3.037,5.913,3.736
					c-0.385,0.954-0.98,2.017-1.663,3.075c-0.023,0.021-0.035,0.041-0.047,0.063c-1.546,2.074-3.576,4.698-4.502,5.884
					c-0.059,0.084-0.116,0.157-0.174,0.219c-0.058,0.084-0.116,0.156-0.162,0.208c-1.053,1.32-0.217,3.81-0.206,4.645
					c-0.008,0.367,0.026,0.953-0.131,1.486C234.965,401.526,234.503,402.099,233.378,402.073z"/>
				<path style="fill:#FF5F5C;" d="M235.162,400.854c-2.003-1.661-4.588-9.491-4.826-11.613c-0.268-2.374,1.178-5.861,1.9-7.696
					c0.711-1.825-2.11-9.06-0.644-11.053c2.669-0.122,6.482,0.875,7.285,1.046c1.135,0.242,1.298,1.701,1.298,1.701
					s-0.001,0.011-0.012,0.021c-0.289,0.342-3.909,4.864-3.875,6.729c0.003,0.141,0.04,0.272,0.088,0.394
					c0.783,1.61,5.974,2.137,6.066,2.661c0.099,0.611-0.06,1.383-0.396,2.231c-0.385,0.954-0.98,2.017-1.663,3.075
					c-0.023,0.021-0.035,0.041-0.047,0.063c-1.563,2.398-3.569,4.785-4.502,5.884c-0.059,0.084-0.116,0.157-0.174,0.219
					c-0.058,0.084-0.116,0.156-0.162,0.208c-1.053,1.32-0.217,3.81-0.206,4.645C235.285,399.735,235.319,400.321,235.162,400.854z"
					/>
				<path style="fill:#FFFFF6;" d="M241.382,389.202c0.021-0.573-0.187-0.788-0.608-1.123c-0.339-0.269-0.671-0.548-1.021-0.802
					c-0.555-0.403-1.311-1.149-2.05-0.856c-0.283,0.112-0.319,0.421-0.184,0.657c0.327,0.574,0.946,1.087,1.426,1.534
					c0.482,0.448,1.138,1.298,1.857,1.145C241.061,389.701,241.371,389.506,241.382,389.202z"/>
				<path style="fill:#FFFFF6;" d="M239.909,392.51c0.018-0.809-0.533-1.389-1.027-1.996c-0.483-0.595-1.011-1.27-1.657-1.691
					c-0.51-0.332-1.294,0.107-1.014,0.755c0.294,0.681,0.786,1.273,1.215,1.873c0.388,0.543,0.817,1.397,1.478,1.608
					C239.287,393.181,239.898,393.023,239.909,392.51z"/>
			</g>
		</g>
		<g>
			<path style="fill:#FC9382;" d="M285.432,288.927c0,0-7.163-27.102-5.985-31.587c1.178-4.485,30.26-10.472,34.188-10.54
				c3.927-0.068,7.923-1.03,9.176,2.944c2.27,7.198-2.634,9.132-7.935,10.483c-5.301,1.35-24.839,3.382-24.839,3.382l3.211,24.189
				L285.432,288.927z"/>
			<path style="fill:#FC9382;" d="M293.248,287.797c0,0,8.113,1.861,8.47,3.684c0.357,1.823-4.378,0.947-4.378,0.947
				s2.146,5.613,1.654,6.399c-0.491,0.787-3.502,1.443-5.022,1.185c0,0-3.569,0.988-4.806,0.474
				c-1.236-0.515-2.901-3.216-3.475-4.328s-0.259-7.23-0.259-7.23L293.248,287.797z"/>
		</g>
		<g>
			<polygon style="fill:#FFB4A0;" points="324.805,236.724 323.594,246.649 313.936,245.471 314.835,238.099 319.145,232.504 
				321.632,229.258 			"/>
			<path style="fill:#FC9382;" d="M324.805,236.724l-0.397,3.251c-1.156-0.697-2.174-1.638-2.99-2.717
				c-0.824-1.102-1.787-2.94-2.273-4.753l2.487-3.247L324.805,236.724z"/>
			<path style="fill:#FFB4A0;" d="M338.147,230.534c-0.116-0.474-0.326-0.926-0.535-1.377c-0.431-0.928-0.862-1.856-1.294-2.784
				c-0.081-0.176-0.16-0.354-0.247-0.529c-0.349-4.737-1.248-9.171-2.107-10.193c-1.783-2.124-7.512-0.917-7.512-0.917
				s-4.366,4.02-5.472,10.217c-0.461-0.648-1.095-1.131-1.9-0.816c-1.858,0.726-2.991,3.311-1.728,5.234
				c0.763,1.162,2.498,1.646,3.755,1.85c0.193,0.879,0.328,1.844,0.825,2.703c5.174,8.937,11.92,5.212,12.606,4.41
				c0.988-1.156,1.478-3.582,1.63-6.439c0.446-0.073,0.885-0.176,1.294-0.344c0.307-0.126,0.626-0.307,0.705-0.591
				C338.207,230.82,338.181,230.674,338.147,230.534z"/>
			<path style="fill:#FC9382;" d="M320.857,226.032c-0.988-0.825-2.881-0.095-2.809,1.254c0.004,0.082,0.114,0.096,0.141,0.019
				c0.402-1.168,1.993-1.513,2.629-0.38c0.119,0.211,0.19,0.417,0.228,0.619c-0.318-0.188-0.846-0.24-1.081-0.193
				c-0.628,0.126-1.142,0.82-0.867,1.44c0.112,0.254,0.439,0.086,0.464-0.126c0.044-0.375,0.141-0.685,0.541-0.812
				c0.153-0.048,0.938-0.058,0.923,0.146c-0.002,0.037,0.01,0.065,0.029,0.086c-0.066,0.467-0.319,0.904-0.698,1.301
				c-0.167,0.174,0.051,0.486,0.266,0.345C321.852,228.924,321.988,226.977,320.857,226.032z"/>
		</g>
		<path style="fill:#FFB4A0;" d="M306.254,291.805l-1.153,12.01c0,0,16.017,10.947,18.278,10.45
			c2.262-0.496,9.153-8.063,9.153-8.063v-11.219L306.254,291.805z"/>
		<path style="fill:#004D60;" d="M342.473,271.657c-1.081,4.399-8.724,13.458-8.724,13.458s0.53,3.719,1.222,9.482
			c-9.978,1.837-20.507,0.724-29.847-3.254c1.913-5.081,3.459-9.654,3.459-11.092v-0.119c-0.238-3.297-4.854-17.47-4.313-21.945
			c0.551-4.464,3.6-12.355,9.708-14.788c0,0,13.026,1.762,14.497,3.848C329.943,249.333,343.554,267.246,342.473,271.657z"/>
		<path style="fill:#004D60;" d="M336.499,219.618c0.06-0.852,0.053-2.016-0.208-2.829c-0.355-1.111-0.754-2.218-1.358-3.216
			c-1.349-2.227-3.661-3.764-6.146-4.537c-2.486-0.774-5.143-0.839-7.736-0.607c-5.606,0.502-10.784,3.111-15.558,5.933
			c-2.253,1.332-4.426,2.991-6.825,4.003c-2.686,1.134-5.29,2.232-8.167,2.816c-3.618,0.734-7.601,1.216-10.636,3.506
			c-3.22,2.429-4.323,6.946-3.732,10.839c0.557,3.668,2.7,6.938,5.706,9.079c5.374,3.827,12.874,4.425,18.786,1.498
			c2.416-1.196,4.575-2.927,7.125-3.8c2.581-0.882,6.056,0.035,7.055-2.502c1.015-2.577,3.028-4.738,4.902-6.777
			c0.453-0.493,1.273-1.646,1.726-2.139c-0.076,0.083-0.702-0.058-0.815-0.075c-0.287-0.043-0.571-0.103-0.85-0.181
			c-0.465-0.131-0.91-0.313-1.32-0.569c-0.784-0.489-1.52-1.259-1.635-2.214c-0.218-1.812,2.155-3.937,4.169-2.891
			c1.566,0.813,1.87,3.042,1.87,3.042s2.567-4.931,2.432-7.296c1.688-0.151,3.349-0.616,4.869-1.367
			c-0.487,1.02-1.19,1.936-2.05,2.67C331.09,221.701,334.116,221.447,336.499,219.618z"/>
		<g>
			<path style="fill:#FFB4A0;" d="M356.368,261.141c0,0-3.701,6.008-6.565,11.302c-5.521-5.664-10.369-10.269-15.774-16.043
				c-1.814-1.939-3.67-3.91-5.997-5.189c-2.327-1.279-5.247-1.771-7.643-0.627c-2.078,0.992-3.127,3.612-2.792,5.89
				c0.336,2.277,1.666,4.285,3.152,6.044c2.346,2.777,5.146,5.129,7.931,7.465c0,0,18.581,18.181,22.726,18.079
				c4.143-0.102,11.241-23.771,11.241-23.771L356.368,261.141z"/>
			<path style="fill:#FFB4A0;" d="M356.368,261.141c0,0-4.975-5.483-4.309-6.995c0.666-1.512,3.677,1.535,3.677,1.535
				s1.288-5.188,2.046-5.512c0.759-0.324,3.29,0.727,4.268,1.689c0,0,3.107,1.094,3.748,2.098c0.641,1.005,0.482,3.823,0.336,4.927
				c-0.147,1.104-3.488,5.408-3.488,5.408L356.368,261.141z"/>
		</g>
		<path style="fill:#00B6A5;" d="M332.538,306.207c0,0-4.011,21.21-21.458,37.608c-9.881,9.286-26.172,29.459-28.096,30.68
			c-6.713-8.064-4.735-13.415-4.735-13.415c5.405-11.935,15.708-29.566,15.708-29.566s0.984-10.973,1.838-14.67
			c0.865-3.686,9.308-13.026,9.308-13.026L332.538,306.207z"/>
	</g>
	<g>
		<g>
			<g>
				<path style="fill:#FFB4A0;" d="M72.637,272.85c0,0,2.327,3.703-0.946,12.976c-4.124,11.686-7.34,22.817-12.927,29.124
					c-3.281,3.703-23.882,29.371-23.882,29.371l-3.694,3.87l-4.224-0.315l-1.216-3.648l0.994-4.279c0,0,11.444-21.254,13.302-24.143
					c1.857-2.889,9.914-9.864,9.914-9.864l2.411-20.115c0,0,0.541-7.722,3.243-11.37C58.313,270.807,72.637,272.85,72.637,272.85z"
					/>
				<g>
					<g>
						<path style="fill:#FFFFF6;" d="M42.511,362.145c-1.27,1.373-9.78-2.193-11.582-3.451c-1.801-1.258-3.331-4.376-4.159-5.99
							c-0.835-1.606-7.638-4.091-8.038-6.314c-0.114-0.652,0.271-1.417,0.887-2.205c1.538-1.918,4.544-3.944,5.15-4.395
							c0.857-0.637,1.963,0.138,1.963,0.138s0.007,0.007,0.007,0.021c0.062,0.407,0.983,5.656,2.291,6.766
							c0.1,0.083,0.212,0.138,0.326,0.179c0.229,0.391,0.444,0.697,0.65,0.871c1.173,1.005,4.976-1.426,6.173-1.813
							c0.425,0.846,0.797,1.902,1.113,3.017c0,0.028,0.008,0.05,0.015,0.07c0.493,2.329,1.071,5.324,1.327,6.686
							c0.022,0.091,0.038,0.175,0.045,0.253c0.022,0.091,0.037,0.175,0.045,0.238c0.272,1.529,2.498,2.466,3.081,2.965
							c0.249,0.229,0.675,0.562,0.948,0.994C43.099,360.717,43.212,361.384,42.511,362.145z"/>
						<path style="fill:#FF5F5C;" d="M42.754,360.173c-2.365,0.373-9.342-2.601-10.953-3.727c-1.801-1.258-3.33-4.376-4.159-5.99
							c-0.828-1.6-7.539-4.049-8.023-6.272c1.538-1.918,4.544-3.944,5.15-4.395c0.857-0.637,1.963,0.138,1.963,0.138
							s0.007,0.007,0.007,0.021c0.062,0.407,0.983,5.656,2.291,6.766c0.1,0.083,0.212,0.138,0.326,0.179
							c1.587,0.438,5.106-2.826,5.524-2.571c0.482,0.304,0.918,0.882,1.3,1.63c0.425,0.846,0.797,1.902,1.113,3.017
							c0,0.028,0.008,0.05,0.015,0.07c0.706,2.537,1.135,5.373,1.327,6.686c0.022,0.091,0.038,0.175,0.045,0.253
							c0.022,0.091,0.037,0.175,0.045,0.238c0.272,1.529,2.498,2.466,3.081,2.965C42.056,359.408,42.482,359.74,42.754,360.173z"/>
						<path style="fill:#FFFFF6;" d="M38.488,348.795c-0.382-0.362-0.658-0.35-1.145-0.262c-0.392,0.07-0.787,0.131-1.174,0.218
							c-0.616,0.138-1.591,0.207-1.837,0.895c-0.095,0.264,0.097,0.476,0.341,0.526c0.595,0.123,1.325,0.008,1.926-0.052
							c0.602-0.06,1.588,0.003,1.919-0.587C38.638,349.32,38.691,348.988,38.488,348.795z"/>
						<path style="fill:#FFFFF6;" d="M39.877,351.823c-0.548-0.504-1.283-0.477-2.003-0.504c-0.704-0.027-1.491-0.074-2.175,0.116
							c-0.539,0.15-0.712,0.958-0.095,1.159c0.648,0.21,1.356,0.23,2.031,0.299c0.611,0.063,1.462,0.285,2.009-0.043
							C39.962,352.66,40.226,352.144,39.877,351.823z"/>
					</g>
				</g>
			</g>
			<g>
				<path style="fill:#FC9382;" d="M82.342,270.944c0,0,3.816,3.894,6.104,13.916c2.759,12.081,7.189,33.356,7.491,37.472
					c0.362,4.935,1.394,32.366,1.394,32.366l-0.267,5.344l-3.403,2.522l-3.305-1.967l-2.044-3.889c0,0-5.229-23.565-5.712-26.966
					c-0.482-3.4,1.056-13.945,1.056-13.945l-11.322-16.8c0,0-4.638-6.198-4.977-10.725c-0.148-1.977-5.161-11.117-1.919-14.493
					C69.627,269.42,82.342,270.944,82.342,270.944z"/>
				<g>
					<g>
						<path style="fill:#FFFFF6;" d="M114.248,364.854c-0.2,1.859-9.156,4.077-11.353,4.144c-2.196,0.065-5.284-1.523-6.912-2.324
							c-1.629-0.79-8.569,1.277-10.218-0.269c-0.48-0.456-0.628-1.299-0.604-2.299c0.089-2.456,1.292-5.877,1.509-6.6
							c0.308-1.022,1.658-1.063,1.658-1.063s0.01,0.002,0.018,0.013c0.292,0.29,4.165,3.951,5.876,4.061
							c0.129,0.008,0.253-0.016,0.368-0.051c0.418,0.177,0.773,0.295,1.042,0.311c1.541,0.106,3.142-4.113,3.872-5.139
							c0.846,0.425,1.775,1.052,2.693,1.757c0.017,0.022,0.036,0.035,0.054,0.047c1.785,1.575,4.037,3.633,5.054,4.572
							c0.072,0.061,0.135,0.119,0.188,0.176c0.072,0.061,0.134,0.119,0.178,0.165c1.131,1.064,3.477,0.487,4.242,0.54
							c0.336,0.035,0.877,0.047,1.354,0.231C113.867,363.357,114.356,363.824,114.248,364.854z"/>
						<path style="fill:#FF5F5C;" d="M113.266,363.126c-1.675,1.712-9.048,3.49-11.012,3.547c-2.196,0.066-5.284-1.522-6.912-2.323
							c-1.62-0.789-8.466,1.25-10.182-0.244c0.089-2.456,1.292-5.877,1.509-6.6c0.308-1.022,1.658-1.063,1.658-1.063
							s0.01,0.002,0.018,0.013c0.292,0.29,4.165,3.951,5.876,4.061c0.129,0.008,0.253-0.016,0.368-0.051
							c1.535-0.597,2.41-5.314,2.897-5.359c0.568-0.044,1.263,0.159,2.016,0.531c0.846,0.425,1.775,1.052,2.693,1.757
							c0.017,0.022,0.036,0.035,0.054,0.047c2.081,1.614,4.117,3.634,5.054,4.572c0.072,0.061,0.135,0.119,0.188,0.176
							c0.072,0.061,0.134,0.119,0.178,0.165c1.131,1.064,3.477,0.487,4.242,0.54C112.249,362.93,112.789,362.941,113.266,363.126z"
							/>
						<path style="fill:#FFFFF6;" d="M103.052,356.544c-0.523-0.063-0.736,0.111-1.075,0.473c-0.272,0.29-0.553,0.574-0.813,0.876
							c-0.412,0.478-1.152,1.115-0.939,1.813c0.081,0.269,0.361,0.324,0.588,0.219c0.551-0.257,1.068-0.785,1.514-1.191
							c0.448-0.407,1.276-0.945,1.189-1.616C103.486,356.876,103.331,356.577,103.052,356.544z"/>
						<path style="fill:#FFFFF6;" d="M105.974,358.144c-0.741-0.077-1.314,0.385-1.908,0.792c-0.581,0.397-1.24,0.83-1.675,1.391
							c-0.343,0.442,0.001,1.194,0.615,0.986c0.646-0.218,1.226-0.624,1.808-0.972c0.527-0.314,1.343-0.644,1.586-1.233
							C106.542,358.765,106.444,358.193,105.974,358.144z"/>
					</g>
				</g>
			</g>
			<path style="fill:#FFFFF6;" d="M55.205,273.196c0,0-2.433,3.892-3.108,5.886c-0.675,1.994-3.876,22.798-3.876,22.798
				s16.239,5.276,17.22,5.682l4.31-11.216l5.455,8.647l17.161-9.053l-6.207-21.103L55.205,273.196z"/>
		</g>
		<g>
			<g>
				<path style="fill:#FC9382;" d="M95.082,232.181l-15.35,11.698l1.191,9.619c6.682-1.839,18.673-16.281,18.673-16.281
					L95.082,232.181z"/>
				<g>
					<path style="fill:#FC9382;" d="M95.082,232.181c0,0-0.022-5.07,0.924-5.907c0.946-0.838,2.065,2.243,2.065,2.243
						s2.554-3.194,3.186-3.177c0.631,0.017,2.054,1.558,2.426,2.539c0,0,1.811,1.753,1.935,2.657
						c0.124,0.903-0.888,2.811-1.342,3.531c-0.455,0.72-4.678,3.149-4.678,3.149L95.082,232.181z"/>
				</g>
			</g>
		</g>
		<g>
			<polygon style="fill:#FFB4A0;" points="78.428,212.637 77.119,220.906 69.074,219.632 69.68,209.003 73.818,208.939 
				75.996,206.296 			"/>
			<path style="fill:#FC9382;" d="M78.428,212.637l-0.429,2.708c-0.947-0.617-1.771-1.435-2.421-2.362
				c-0.657-0.947-1.407-2.514-1.761-4.045l2.178-2.643L78.428,212.637z"/>
			<g>
				<path style="fill:#FFB4A0;" d="M88.277,204.898c-0.171-0.371-0.416-0.709-0.66-1.046c-0.503-0.694-1.005-1.387-1.508-2.081
					c-0.095-0.131-0.188-0.266-0.288-0.395c-1.045-3.837-2.493-7.337-3.361-8.04c-1.805-1.46-6.319,0.448-6.319,0.448
					s-2.946,4.002-2.864,9.271c-0.482-0.459-1.08-0.754-1.692-0.367c-1.411,0.894-1.928,3.199-0.583,4.578
					c0.812,0.833,2.315,0.953,3.381,0.919c0.3,0.692,0.564,1.462,1.111,2.089c5.68,6.518,10.629,2.378,11.064,1.609
					c0.627-1.108,0.641-3.18,0.31-5.553c0.355-0.131,0.699-0.286,1.009-0.49c0.232-0.152,0.465-0.352,0.485-0.598
					C88.372,205.124,88.328,205.008,88.277,204.898z"/>
				<path style="fill:#FC9382;" d="M73.349,203.962c-0.943-0.52-2.382,0.382-2.107,1.48c0.017,0.067,0.109,0.061,0.119-0.007
					c0.144-1.024,1.396-1.562,2.1-0.732c0.131,0.155,0.222,0.313,0.286,0.472c-0.291-0.103-0.733-0.062-0.919,0.015
					c-0.496,0.204-0.807,0.856-0.482,1.322c0.133,0.191,0.375,0.001,0.361-0.178c-0.023-0.315,0.007-0.586,0.315-0.753
					c0.118-0.064,0.761-0.198,0.782-0.027c0.003,0.031,0.018,0.052,0.038,0.066c0.021,0.395-0.118,0.793-0.366,1.18
					c-0.109,0.17,0.12,0.392,0.274,0.241C74.628,206.181,74.429,204.558,73.349,203.962z"/>
			</g>
		</g>
		<path style="fill:#00B6A5;" d="M84.982,226.184c-0.819-2.944-1.639-5.352-2.218-6.221c-2.357-3.535-7.798-4.695-11.964-5.533
			c-4.165-0.838-8.455-0.864-12.697-0.625c-1.458,0.082-3.022,0.238-4.128,1.191c-1.106,0.953-1.35,2.993-0.106,3.757
			c-1.07,0.241-2.356,0.867-3.327,1.376c-0.971,0.509-1.833,1.321-2.161,2.368c-0.169,0.542-0.188,1.137-0.005,1.675
			c0.286,0.842,1.032,1.464,1.852,1.81c0.819,0.346,1.716,0.453,2.599,0.557c-0.248,1.489,0.886,2.899,1.228,4.369
			c0.845,3.641,1.871,24.082,1.871,24.082s0.461,11.158-1.036,16.353c-0.512,1.776-1.287,3.63-2.509,5.019
			c2.595,2.197,6.504,1.709,9.764,0.741c3.26-0.968,6.457-2.504,9.856-2.414c2.447,0.065,4.784,0.974,7.189,1.426
			c2.406,0.453,5.144,0.357,6.969-1.273c0,0,0.262-17.767,0.315-25.589C86.498,245.655,86.612,232.019,84.982,226.184z"/>
		<g>
			<path style="fill:#FFB4A0;" d="M68.697,223.463c1.084,2.344-7.587,25.779-7.587,25.779l19.813,4.983l-1.184,7.038
				c0,0-26.005,2.399-28.624-3.843c-3.486-8.309,1.692-22.687,4.939-32.164c1.991-5.812,8.354-7.48,12.12-2.626
				C68.394,222.913,68.572,223.192,68.697,223.463z"/>
			<g>
				<path style="fill:#FFB4A0;" d="M80.924,254.225c0,0,4.169-3.354,5.482-3.125c1.314,0.23-0.492,3.181-0.492,3.181
					s4.316,0.006,4.717,0.538c0.401,0.531,0.066,2.72-0.499,3.672c0,0-0.256,2.648-0.919,3.345
					c-0.663,0.696-2.904,1.117-3.797,1.216c-0.894,0.099-5.677-1.788-5.677-1.788L80.924,254.225z"/>
			</g>
		</g>
		<path style="fill:#00B6A5;" d="M60.465,217.871c0,0-6.156,5.249-7.639,8.666c-1.482,3.417-4.606,19.534-4.606,19.534l16.336,1.914
			c0,0,6.227-17.788,6.322-19.851c0.096-2.063,0.505-8.79-1.986-8.956C66.401,219.012,60.465,217.871,60.465,217.871z"/>
		<path style="fill:#009983;" d="M56.496,222.674c-0.074,0.104-0.149,0.207-0.223,0.31c-0.006,0.009,0.007,0.019,0.014,0.01
			c0.074-0.104,0.149-0.207,0.223-0.311C56.516,222.675,56.502,222.665,56.496,222.674z"/>
		<path style="fill:#009983;" d="M67.859,222.119c-3.642-6.681-10.501-2.426-13.99,2.182c-0.22,0.29,0.215,0.723,0.477,0.446
			c1.833-1.941,4.688-5.124,7.579-5.087c2.74,0.035,5.277,3.607,5.859,5.967c0.453,1.834,0.513,3.748,0.444,5.627
			c-0.2,5.501-1.933,10.659-4.097,15.665c-0.373,0.863,0.971,1.367,1.356,0.521C68.719,240.344,71.879,229.495,67.859,222.119z"/>
		<path style="fill:#004D60;" d="M64.935,201.202c0.587,2.848,1.756,5.582,3.497,7.984c0.688,0.948,1.345,1.69,1.691,1.635
			c0.921-0.146,2.369-1.565,2.369-1.565s0.37,1.645,1.375,1.284c1.005-0.361,1.22-2.354,1.22-2.354s-3.612-0.311-4.007-1.89
			c-0.394-1.579,0.078-3.085,1.086-3.391c1.008-0.306,1.918,0.432,1.918,0.432s3.956-6.985,3.329-8.967c0,0,5.606,0.232,6.325-1.033
			c0.719-1.265,0.188-5.138-1.355-6.174c-1.544-1.036-2.964,2.703-2.964,2.703s-6.078-2.477-11.85,1.937
			C65.352,193.498,63.667,195.045,64.935,201.202z"/>
		<path style="fill:#FF5F5C;" d="M64.269,199.135c0,0,15.079-5.149,19.787-7.942c0,0,1.241,2.627-0.224,3.408
			c-1.465,0.781-18.818,6.4-18.989,6.129C64.4,200.028,64.269,199.135,64.269,199.135z"/>
		<path style="fill:#E8E8E2;" d="M77.798,281.61c-0.158-1.323-2.259-1.335-2.094,0c0.627,5.088-2.597,9.147-5.62,12.88
			c-0.271,0.334,0.146,0.77,0.477,0.478C74.541,291.468,78.486,287.361,77.798,281.61z"/>
	</g>
</g>
<g id="DESIGNED_BY_FREEPIK">
	<g>
		<g id="XMLID_319_">
			<g id="XMLID_338_">
				<path id="XMLID_346_" style="fill:#F9FBFC;" d="M260.104,465.464c-0.432,0.443-0.803,0.931-1.108,1.453l-0.465-0.241
					c-0.067-0.298-0.349-0.502-0.659-0.466c-0.331,0.039-0.568,0.339-0.529,0.67c0.038,0.331,0.339,0.567,0.669,0.528
					c0.065-0.008,0.127-0.025,0.184-0.052l0.452,0.234c-0.251,0.554-0.433,1.139-0.54,1.743l0.747,0.132
					c0.23-1.306,0.85-2.507,1.792-3.473L260.104,465.464z"/>
				<path id="XMLID_345_" style="fill:#F9FBFC;" d="M265.592,463.162c-0.171,0-0.341,0.006-0.51,0.017l-0.074-0.626
					c0.188-0.149,0.296-0.389,0.266-0.645c-0.046-0.394-0.402-0.674-0.795-0.628c-0.393,0.046-0.674,0.402-0.628,0.795
					c0.03,0.255,0.189,0.462,0.405,0.564l0.073,0.625c-0.713,0.116-1.403,0.332-2.06,0.646l0.327,0.684
					c0.934-0.446,1.942-0.673,2.996-0.673c0.496,0,0.993,0.053,1.475,0.157l0.16-0.74
					C266.692,463.221,266.142,463.162,265.592,463.162z"/>
				<path id="XMLID_344_" style="fill:#F9FBFC;" d="M272.194,465.709c0.331-0.04,0.567-0.342,0.526-0.672
					c-0.04-0.331-0.342-0.566-0.672-0.526c-0.31,0.038-0.535,0.305-0.53,0.609l-0.416,0.363c-0.418-0.431-0.89-0.813-1.408-1.14
					l-0.404,0.642c1.134,0.715,2.02,1.725,2.563,2.925l0.69-0.313c-0.251-0.554-0.567-1.071-0.942-1.545l0.402-0.351
					C272.065,465.714,272.128,465.717,272.194,465.709z"/>
				<path id="XMLID_343_" style="fill:#F9FBFC;" d="M265.044,473.37c-0.386,0.023-0.775,0.035-1.157,0.035
					c-0.88,0-1.733-0.061-2.478-0.18c-0.391-0.061-0.846-0.154-1.27-0.292c1.046,1.861,3.069,3.125,5.389,3.125
					c2.855,0,5.262-1.916,5.949-4.504c-0.682,0.45-1.505,0.826-2.458,1.123C267.838,473.046,266.463,473.285,265.044,473.37z"/>
				<path id="XMLID_339_" style="fill:#F9FBFC;" d="M265.592,464.678c-3.353,0-6.08,2.667-6.08,5.943
					c0,0.426,0.046,0.85,0.137,1.262c0.674,0.482,2.706,0.89,5.348,0.731c2.879-0.174,5.297-0.958,6.672-2.159
					c-0.005-0.194-0.021-0.39-0.045-0.582C271.244,466.911,268.65,464.678,265.592,464.678z M263.432,471.193
					c-1.02,0-1.85-0.83-1.85-1.851c0-1.02,0.83-1.85,1.85-1.85c1.02,0,1.85,0.83,1.85,1.85
					C265.282,470.363,264.452,471.193,263.432,471.193z M268.169,470.284c-0.75,0-1.36-0.609-1.36-1.359s0.61-1.361,1.36-1.361
					c0.75,0,1.361,0.611,1.361,1.361S268.92,470.284,268.169,470.284z"/>
			</g>
			<path id="XMLID_336_" style="fill:#F9FBFC;" d="M281.595,466.545c-0.295-0.115-0.806-0.309-1.382-0.237
				c-0.551,0.068-0.844,0.341-0.844,1.007v0.866h2.228v1.717h-2.228v5.455h-1.932v-5.455h-1.339v-1.717h1.339v-0.889
				c0-1.68,0.895-2.782,2.568-2.782c0.642,0,1.157,0.121,1.59,0.308V466.545z"/>
			<path id="XMLID_334_" style="fill:#F9FBFC;" d="M286.298,469.877c-0.177-0.029-0.358-0.046-0.526-0.046
				c-0.896,0-1.51,0.548-1.51,1.613v3.908h-1.932v-7.172h1.872v0.784c0.451-0.673,1.14-0.977,2.021-0.977
				c0.415,0,0.848,0.127,1.094,0.337L286.298,469.877z"/>
			<path id="XMLID_331_" style="fill:#F9FBFC;" d="M293.965,471.755c0,0.223-0.015,0.489-0.037,0.651h-5.084
				c0.207,1.037,0.933,1.488,1.843,1.488c0.622,0,1.295-0.252,1.814-0.688l1.132,1.243c-0.814,0.748-1.851,1.088-3.057,1.088
				c-2.198,0-3.723-1.495-3.723-3.752c0-2.258,1.48-3.797,3.626-3.797C292.544,467.988,293.957,469.521,293.965,471.755z
				 M288.851,471.089h3.175c-0.178-0.917-0.733-1.436-1.562-1.436C289.554,469.653,289.021,470.201,288.851,471.089z"/>
			<path id="XMLID_328_" style="fill:#F9FBFC;" d="M301.618,471.755c0,0.223-0.015,0.489-0.037,0.651h-5.084
				c0.207,1.037,0.933,1.488,1.843,1.488c0.622,0,1.295-0.252,1.813-0.688l1.132,1.243c-0.814,0.748-1.851,1.088-3.057,1.088
				c-2.198,0-3.723-1.495-3.723-3.752c0-2.258,1.48-3.797,3.626-3.797C300.197,467.988,301.611,469.521,301.618,471.755z
				 M296.504,471.089h3.175c-0.178-0.917-0.733-1.436-1.562-1.436C297.207,469.653,296.674,470.201,296.504,471.089z"/>
			<path id="XMLID_325_" style="fill:#F9FBFC;" d="M309.964,471.763c0,2.154-1.495,3.774-3.471,3.774
				c-0.962,0-1.643-0.377-2.109-0.933v3.709h-1.924v-10.133h1.887v0.792c0.466-0.585,1.155-0.984,2.139-0.984
				C308.469,467.988,309.964,469.609,309.964,471.763z M304.287,471.763c0,1.133,0.748,1.977,1.843,1.977
				c1.14,0,1.85-0.881,1.85-1.977s-0.711-1.977-1.85-1.977C305.035,469.786,304.287,470.63,304.287,471.763z"/>
			<path id="XMLID_322_" style="fill:#F9FBFC;" d="M313.067,465.834c0,0.696-0.541,1.228-1.236,1.228
				c-0.696,0-1.229-0.532-1.229-1.228c0-0.695,0.533-1.243,1.229-1.243C312.527,464.591,313.067,465.139,313.067,465.834z
				 M312.809,475.353h-1.932v-7.172h1.932V475.353z"/>
			<path id="XMLID_320_" style="fill:#F9FBFC;" d="M316.032,470.734l2.702-2.554h2.369l-3.479,3.375l3.501,3.797h-2.376
				l-2.716-2.901v2.901H314.1v-10.658h1.932V470.734z"/>
		</g>
		<g>
			<path style="fill:#F9FBFC;" d="M184.412,475.287v-1.055c-0.527,0.718-1.392,1.23-2.387,1.23c-1.846,0-3.149-1.406-3.149-3.705
				c0-2.256,1.289-3.721,3.149-3.721c0.952,0,1.816,0.469,2.387,1.245v-3.765h1.099v9.77H184.412z M184.412,473.368v-3.207
				c-0.395-0.615-1.245-1.143-2.124-1.143c-1.42,0-2.271,1.172-2.271,2.739c0,1.567,0.85,2.724,2.271,2.724
				C183.167,474.481,184.017,473.984,184.412,473.368z"/>
			<path style="fill:#F9FBFC;" d="M186.932,471.743c0-2.051,1.465-3.706,3.486-3.706c2.139,0,3.398,1.67,3.398,3.793v0.279h-5.727
				c0.088,1.333,1.025,2.445,2.549,2.445c0.806,0,1.626-0.322,2.182-0.894l0.527,0.719c-0.703,0.703-1.655,1.083-2.813,1.083
				C188.44,475.463,186.932,473.955,186.932,471.743z M190.403,468.945c-1.509,0-2.256,1.274-2.314,2.357h4.644
				C192.717,470.248,192.014,468.945,190.403,468.945z"/>
			<path style="fill:#F9FBFC;" d="M194.607,474.35l0.571-0.79c0.469,0.542,1.362,1.011,2.329,1.011c1.084,0,1.67-0.514,1.67-1.217
				c0-1.713-4.38-0.658-4.38-3.281c0-1.098,0.952-2.035,2.636-2.035c1.201,0,2.051,0.454,2.622,1.025l-0.513,0.762
				c-0.424-0.513-1.201-0.893-2.109-0.893c-0.966,0-1.567,0.483-1.567,1.113c0,1.552,4.38,0.527,4.38,3.281
				c0,1.186-0.952,2.138-2.783,2.138C196.306,475.463,195.324,475.111,194.607,474.35z"/>
			<path style="fill:#F9FBFC;" d="M201.477,466.47c0-0.41,0.337-0.747,0.732-0.747c0.41,0,0.747,0.337,0.747,0.747
				c0,0.41-0.337,0.732-0.747,0.732C201.814,467.202,201.477,466.88,201.477,466.47z M201.667,475.287v-7.074h1.099v7.074H201.667z"
				/>
			<path style="fill:#F9FBFC;" d="M204.582,477.103l0.556-0.82c0.586,0.703,1.289,0.967,2.3,0.967c1.172,0,2.27-0.57,2.27-2.124
				v-1.011c-0.513,0.718-1.377,1.26-2.373,1.26c-1.846,0-3.149-1.377-3.149-3.662c0-2.27,1.289-3.676,3.149-3.676
				c0.952,0,1.802,0.469,2.373,1.245v-1.069h1.099v6.87c0,2.343-1.641,3.075-3.369,3.075
				C206.237,478.158,205.417,477.924,204.582,477.103z M209.708,473.252v-3.091c-0.381-0.615-1.23-1.143-2.109-1.143
				c-1.421,0-2.27,1.128-2.27,2.694c0,1.554,0.849,2.695,2.27,2.695C208.478,474.408,209.328,473.867,209.708,473.252z"/>
			<path style="fill:#F9FBFC;" d="M217.413,475.287v-4.629c0-1.244-0.63-1.64-1.582-1.64c-0.864,0-1.685,0.527-2.095,1.099v5.17
				h-1.099v-7.074h1.099v1.025c0.498-0.586,1.465-1.201,2.52-1.201c1.479,0,2.256,0.747,2.256,2.285v4.965H217.413z"/>
			<path style="fill:#F9FBFC;" d="M219.932,471.743c0-2.051,1.465-3.706,3.486-3.706c2.139,0,3.398,1.67,3.398,3.793v0.279h-5.727
				c0.087,1.333,1.025,2.445,2.548,2.445c0.806,0,1.626-0.322,2.183-0.894l0.527,0.719c-0.703,0.703-1.655,1.083-2.813,1.083
				C221.441,475.463,219.932,473.955,219.932,471.743z M223.404,468.945c-1.509,0-2.256,1.274-2.314,2.357h4.643
				C225.718,470.248,225.015,468.945,223.404,468.945z"/>
			<path style="fill:#F9FBFC;" d="M233.35,475.287v-1.055c-0.527,0.718-1.391,1.23-2.388,1.23c-1.846,0-3.149-1.406-3.149-3.705
				c0-2.256,1.289-3.721,3.149-3.721c0.952,0,1.817,0.469,2.388,1.245v-3.765h1.099v9.77H233.35z M233.35,473.368v-3.207
				c-0.395-0.615-1.245-1.143-2.124-1.143c-1.421,0-2.27,1.172-2.27,2.739c0,1.567,0.849,2.724,2.27,2.724
				C232.105,474.481,232.954,473.984,233.35,473.368z"/>
			<path style="fill:#F9FBFC;" d="M239.692,475.287v-9.77h1.098v3.765c0.572-0.776,1.421-1.245,2.388-1.245
				c1.845,0,3.149,1.465,3.149,3.721c0,2.299-1.304,3.705-3.149,3.705c-0.996,0-1.86-0.513-2.388-1.23v1.055H239.692z
				 M242.899,474.481c1.436,0,2.286-1.156,2.286-2.724c0-1.567-0.85-2.739-2.286-2.739c-0.864,0-1.728,0.527-2.109,1.143v3.207
				C241.171,473.984,242.036,474.481,242.899,474.481z"/>
			<path style="fill:#F9FBFC;" d="M247.528,477.06c0.161,0.073,0.425,0.117,0.601,0.117c0.483,0,0.806-0.161,1.055-0.747
				l0.469-1.069l-2.959-7.148h1.186l2.358,5.8l2.344-5.8h1.201l-3.545,8.51c-0.425,1.025-1.143,1.421-2.08,1.436
				c-0.234,0-0.601-0.044-0.806-0.103L247.528,477.06z"/>
		</g>
	</g>
</g>
</svg>
